<svg width="567" height="308" viewBox="0 0 567 308" fill="none" xmlns="http://www.w3.org/2000/svg">
<rect width="411" height="193" rx="16" fill="#27272A"/>
<line y1="158" x2="411" y2="158" stroke="#3F3F46" stroke-width="2"/>
<rect x="353" y="20" width="40" height="40" rx="5" fill="#3F3F46"/>
<rect x="17" y="42" width="103" height="18" rx="4" fill="#3F3F46"/>
<rect x="17" y="17" width="139" height="21" rx="4" fill="#3F3F46"/>
<rect x="21" y="169" width="14" height="14" rx="2" fill="#3F3F46"/>
<rect x="71" y="169" width="14" height="14" rx="2" fill="#3F3F46"/>
<rect x="38" y="171" width="22" height="10" rx="2" fill="#3F3F46"/>
<rect x="88" y="171" width="22" height="10" rx="2" fill="#3F3F46"/>
<rect x="17" y="94" width="378" height="46" rx="11" fill="#3F3F46"/>
<g filter="url(#filter0_d_1316_254)">
<rect x="137" y="80" width="411" height="193" rx="16" fill="#27272A"/>
<line x1="137" y1="238" x2="548" y2="238" stroke="#3F3F46" stroke-width="2"/>
<rect x="490" y="100" width="40" height="40" rx="5" fill="#3F3F46"/>
<rect x="154" y="122" width="103" height="18" rx="4" fill="#3F3F46"/>
<rect x="154" y="97" width="139" height="21" rx="4" fill="#3F3F46"/>
<rect x="158" y="249" width="14" height="14" rx="2" fill="#3F3F46"/>
<rect x="208" y="249" width="14" height="14" rx="2" fill="#3F3F46"/>
<rect x="175" y="251" width="22" height="10" rx="2" fill="#3F3F46"/>
<rect x="225" y="251" width="22" height="10" rx="2" fill="#3F3F46"/>
</g>
<rect x="154" y="173" width="378" height="46" rx="11" fill="#3F3F46"/>
<defs>
<filter id="filter0_d_1316_254" x="94.9" y="53.9" width="471.2" height="253.2" filterUnits="userSpaceOnUse" color-interpolation-filters="sRGB">
<feFlood flood-opacity="0" result="BackgroundImageFix"/>
<feColorMatrix in="SourceAlpha" type="matrix" values="0 0 0 0 0 0 0 0 0 0 0 0 0 0 0 0 0 0 127 0" result="hardAlpha"/>
<feOffset dx="-12" dy="4"/>
<feGaussianBlur stdDeviation="15.05"/>
<feComposite in2="hardAlpha" operator="out"/>
<feColorMatrix type="matrix" values="0 0 0 0 0 0 0 0 0 0 0 0 0 0 0 0 0 0 0.25 0"/>
<feBlend mode="normal" in2="BackgroundImageFix" result="effect1_dropShadow_1316_254"/>
<feBlend mode="normal" in="SourceGraphic" in2="effect1_dropShadow_1316_254" result="shape"/>
</filter>
</defs>
</svg>
