<svg width="32" height="32" fill="none" xmlns="http://www.w3.org/2000/svg"><g clip-path="url(#a)"><path d="M10.813 22.333c.055-.083.034-.173-.063-.27-.125-.098-.222-.112-.292-.042-.055.083-.034.173.063.27.125.098.222.112.291.042Zm-.584-.854c-.07-.097-.153-.125-.25-.083-.083.055-.083.139 0 .25.097.11.18.146.25.104.084-.056.084-.146 0-.27Zm-.854-.833c.028-.056-.007-.111-.104-.167-.097-.028-.153-.014-.167.042-.041.07-.014.125.084.166.11.028.173.014.187-.041Zm.438.479c.027-.014.038-.045.03-.094a.16.16 0 0 0-.072-.114c-.084-.098-.153-.118-.209-.063-.055.056-.048.132.021.23.084.083.16.097.23.041Zm1.791 1.563c.028-.098-.035-.174-.187-.23-.125-.041-.216-.014-.271.084-.028.097.035.173.187.229.125.041.216.014.271-.084Zm.875.062c0-.111-.083-.167-.25-.167-.139 0-.208.056-.208.167 0 .111.076.167.229.167.153 0 .23-.056.23-.167Zm.813-.146c-.028-.097-.118-.132-.271-.104-.153.028-.215.09-.188.188.028.11.111.152.25.125.14-.028.209-.098.209-.209ZM26.667 16c0-2.944-1.042-5.458-3.125-7.542C21.458 6.375 18.944 5.333 16 5.333s-5.458 1.042-7.542 3.125C6.375 10.542 5.333 13.056 5.333 16c0 2.32.68 4.406 2.042 6.26 1.361 1.855 3.111 3.143 5.25 3.865.25.042.434.007.552-.104a.549.549 0 0 0 .177-.417c0-.722-.007-1.382-.02-1.979l-.324.052c-.131.02-.378.035-.74.042a4.557 4.557 0 0 1-1-.084 2.364 2.364 0 0 1-.905-.416 1.625 1.625 0 0 1-.615-.865c-.32-.82-.715-1.333-1.188-1.541a.384.384 0 0 1-.093-.073l-.167-.167-.146-.198.084-.156.406-.073c.083 0 .187.014.312.041.125.028.334.136.625.323.292.188.521.434.688.74.222.389.482.68.781.875.299.194.6.292.906.292.306 0 .57-.025.792-.073.222-.049.43-.115.625-.198.097-.653.326-1.132.688-1.438a9.07 9.07 0 0 1-1.792-.385 5.591 5.591 0 0 1-1.521-.813c-.5-.368-.885-.895-1.156-1.583-.271-.687-.406-1.517-.406-2.49 0-1.097.368-2.048 1.104-2.854-.334-.86-.299-1.805.104-2.833.264-.083.642-.031 1.135.156.493.188.913.393 1.26.615l.542.333c.806-.236 1.695-.354 2.667-.354.972 0 1.861.118 2.667.354l.593-.375c.243-.153.629-.333 1.157-.541.527-.209.923-.271 1.187-.188.403 1.028.438 1.972.104 2.833a4.092 4.092 0 0 1 1.105 2.854c0 .792-.098 1.49-.292 2.094-.195.604-.441 1.09-.74 1.459-.298.368-.67.677-1.114.927-.445.25-.879.43-1.302.541a9.61 9.61 0 0 1-1.427.25c.486.43.729 1.09.729 1.98 0 .555-.004 1.173-.01 1.854l-.011 1.062c0 .167.059.306.177.417.118.11.302.146.552.104 2.139-.722 3.889-2.01 5.25-3.865 1.361-1.854 2.042-3.94 2.042-6.26ZM32 6v20c0 1.653-.587 3.066-1.76 4.24C29.066 31.413 27.653 32 26 32H6c-1.653 0-3.066-.587-4.24-1.76C.587 29.066 0 27.653 0 26V6c0-1.653.587-3.066 1.76-4.24C2.934.587 4.347 0 6 0h20c1.653 0 3.066.587 4.24 1.76C31.413 2.934 32 4.347 32 6Z" fill="#F4F4F5"/></g><defs><clipPath id="a"><path fill="#fff" d="M0 0h32v32H0z"/></clipPath></defs></svg>