<svg width="929" height="234" viewBox="0 0 929 234" fill="none" xmlns="http://www.w3.org/2000/svg">
<path d="M174.056 187.137L170.545 177.58L173.774 176.393C174.521 176.119 175.181 176.022 175.754 176.101C176.325 176.177 176.807 176.393 177.2 176.75C177.593 177.108 177.892 177.568 178.099 178.131C178.306 178.694 178.374 179.236 178.304 179.756C178.234 180.276 178.007 180.748 177.622 181.172C177.236 181.592 176.673 181.939 175.933 182.211L173.319 183.171L172.935 182.125L175.511 181.179C176.022 180.991 176.405 180.766 176.661 180.502C176.92 180.238 177.07 179.943 177.109 179.617C177.151 179.288 177.101 178.932 176.96 178.549C176.82 178.166 176.625 177.858 176.377 177.625C176.129 177.391 175.819 177.254 175.448 177.214C175.075 177.171 174.631 177.244 174.114 177.434L172.08 178.181L175.214 186.712L174.056 187.137ZM176.978 181.191L180.907 184.62L179.563 185.114L175.671 181.671L176.978 181.191ZM185.296 183.177C184.605 183.431 183.953 183.498 183.341 183.377C182.73 183.252 182.188 182.963 181.715 182.512C181.244 182.057 180.873 181.462 180.604 180.728C180.334 179.993 180.23 179.297 180.292 178.639C180.356 177.976 180.571 177.399 180.938 176.908C181.306 176.412 181.814 176.046 182.461 175.808C182.835 175.671 183.226 175.598 183.636 175.588C184.046 175.579 184.451 175.659 184.853 175.83C185.253 175.997 185.626 176.277 185.971 176.669C186.317 177.061 186.612 177.591 186.858 178.26L187.029 178.727L181.504 180.757L181.154 179.805L185.56 178.186C185.411 177.782 185.198 177.451 184.919 177.193C184.644 176.934 184.325 176.767 183.962 176.692C183.602 176.616 183.223 176.651 182.825 176.797C182.386 176.958 182.047 177.207 181.806 177.542C181.568 177.873 181.426 178.243 181.382 178.651C181.338 179.06 181.388 179.461 181.534 179.856L181.767 180.491C181.966 181.032 182.227 181.457 182.552 181.765C182.879 182.068 183.247 182.256 183.655 182.329C184.062 182.398 184.488 182.351 184.932 182.188C185.222 182.082 185.468 181.945 185.672 181.779C185.877 181.608 186.036 181.409 186.146 181.181C186.255 180.95 186.311 180.693 186.313 180.41L187.487 180.317C187.507 180.72 187.436 181.106 187.272 181.477C187.107 181.845 186.858 182.176 186.525 182.472C186.191 182.764 185.781 182.999 185.296 183.177ZM192.055 180.715C191.601 180.882 191.158 180.948 190.724 180.913C190.29 180.875 189.904 180.732 189.566 180.486C189.227 180.236 188.972 179.878 188.801 179.411C188.65 179 188.609 178.638 188.677 178.323C188.744 178.006 188.885 177.724 189.102 177.478C189.319 177.233 189.578 177.014 189.878 176.822C190.181 176.627 190.49 176.446 190.807 176.28C191.222 176.064 191.56 175.892 191.82 175.765C192.083 175.633 192.263 175.509 192.361 175.391C192.462 175.273 192.48 175.125 192.415 174.948L192.402 174.91C192.232 174.45 191.975 174.138 191.629 173.976C191.287 173.812 190.862 173.823 190.355 174.01C189.829 174.203 189.459 174.469 189.245 174.809C189.031 175.149 188.911 175.472 188.886 175.778L187.703 175.789C187.73 175.285 187.854 174.854 188.076 174.497C188.3 174.136 188.579 173.839 188.914 173.607C189.251 173.37 189.6 173.185 189.961 173.053C190.191 172.968 190.466 172.899 190.785 172.845C191.106 172.787 191.438 172.791 191.779 172.856C192.124 172.92 192.452 173.087 192.763 173.358C193.075 173.628 193.335 174.048 193.544 174.618L195.279 179.34L194.178 179.745L193.821 178.774L193.765 178.795C193.748 178.978 193.684 179.19 193.575 179.431C193.466 179.673 193.29 179.909 193.046 180.139C192.803 180.37 192.472 180.562 192.055 180.715ZM191.86 179.664C192.295 179.504 192.631 179.284 192.867 179.003C193.106 178.721 193.252 178.417 193.305 178.09C193.361 177.762 193.334 177.449 193.224 177.15L192.854 176.142C192.828 176.215 192.744 176.304 192.603 176.409C192.463 176.51 192.297 176.615 192.104 176.725C191.913 176.83 191.726 176.931 191.542 177.027C191.361 177.118 191.214 177.193 191.101 177.252C190.828 177.395 190.583 177.554 190.365 177.729C190.149 177.9 189.995 178.097 189.903 178.317C189.813 178.534 189.82 178.782 189.923 179.062C190.063 179.445 190.311 179.682 190.666 179.774C191.023 179.862 191.421 179.825 191.86 179.664ZM200.051 177.757C199.453 177.976 198.871 178.019 198.302 177.885C197.733 177.748 197.218 177.451 196.756 176.992C196.293 176.53 195.922 175.919 195.643 175.16C195.367 174.407 195.256 173.706 195.311 173.058C195.365 172.409 195.568 171.849 195.917 171.378C196.267 170.907 196.743 170.561 197.347 170.339C197.813 170.168 198.211 170.11 198.539 170.166C198.868 170.218 199.141 170.316 199.356 170.459C199.573 170.598 199.745 170.715 199.871 170.81L199.965 170.776L198.669 167.248L199.77 166.843L203.281 176.401L202.217 176.791L201.812 175.69L201.682 175.738C201.649 175.898 201.594 176.106 201.518 176.36C201.441 176.61 201.292 176.865 201.073 177.122C200.852 177.376 200.511 177.588 200.051 177.757ZM199.837 176.713C200.278 176.55 200.609 176.298 200.83 175.956C201.049 175.61 201.162 175.203 201.17 174.734C201.177 174.262 201.081 173.756 200.882 173.214C200.685 172.679 200.435 172.24 200.132 171.895C199.828 171.548 199.483 171.318 199.095 171.206C198.707 171.091 198.289 171.116 197.841 171.281C197.374 171.452 197.029 171.715 196.806 172.069C196.585 172.418 196.472 172.825 196.466 173.29C196.462 173.75 196.553 174.233 196.738 174.737C196.925 175.247 197.173 175.682 197.482 176.042C197.793 176.397 198.147 176.641 198.545 176.774C198.946 176.902 199.376 176.882 199.837 176.713ZM205.451 175.603L202.818 168.435L203.919 168.031L206.552 175.199L205.451 175.603ZM202.939 167.035C202.724 167.114 202.512 167.109 202.303 167.02C202.097 166.929 201.956 166.782 201.881 166.576C201.805 166.371 201.817 166.167 201.915 165.965C202.017 165.762 202.176 165.621 202.39 165.542C202.605 165.463 202.815 165.468 203.021 165.559C203.231 165.648 203.373 165.795 203.449 166C203.524 166.206 203.511 166.41 203.409 166.613C203.31 166.816 203.153 166.956 202.939 167.035ZM208.087 169.741L209.671 174.053L208.57 174.458L205.936 167.29L207 166.899L207.412 168.019L207.505 167.985C207.539 167.559 207.687 167.173 207.948 166.826C208.208 166.476 208.609 166.202 209.15 166.003C209.635 165.825 210.096 165.768 210.534 165.834C210.97 165.896 211.362 166.091 211.712 166.418C212.061 166.742 212.347 167.208 212.571 167.818L214.244 172.373L213.143 172.778L211.497 168.298C211.29 167.734 210.983 167.349 210.575 167.143C210.166 166.933 209.706 166.922 209.196 167.109C208.844 167.238 208.558 167.43 208.337 167.684C208.12 167.937 207.985 168.239 207.934 168.59C207.883 168.94 207.934 169.324 208.087 169.741ZM220.192 173.408C219.66 173.603 219.178 173.703 218.745 173.707C218.313 173.713 217.929 173.653 217.593 173.526C217.261 173.401 216.974 173.241 216.734 173.047L217.385 172.109C217.532 172.203 217.713 172.306 217.927 172.418C218.143 172.533 218.405 172.604 218.715 172.632C219.03 172.661 219.403 172.596 219.836 172.437C220.414 172.225 220.841 171.909 221.114 171.491C221.388 171.073 221.415 170.565 221.195 169.968L220.66 168.512L220.567 168.546C220.534 168.706 220.479 168.91 220.4 169.158C220.324 169.402 220.174 169.649 219.952 169.9C219.732 170.147 219.389 170.356 218.922 170.527C218.343 170.74 217.774 170.794 217.213 170.689C216.655 170.583 216.146 170.318 215.686 169.894C215.23 169.468 214.865 168.882 214.59 168.136C214.321 167.401 214.215 166.715 214.273 166.075C214.33 165.433 214.534 164.878 214.885 164.41C215.234 163.939 215.711 163.593 216.314 163.371C216.781 163.2 217.18 163.141 217.511 163.196C217.844 163.247 218.119 163.344 218.337 163.486C218.558 163.624 218.731 163.74 218.858 163.835L218.97 163.794L218.551 162.655L219.615 162.264L222.324 169.638C222.55 170.254 222.594 170.806 222.456 171.295C222.322 171.785 222.053 172.207 221.65 172.56C221.251 172.915 220.765 173.198 220.192 173.408ZM218.708 169.483C219.15 169.321 219.486 169.082 219.717 168.768C219.947 168.454 220.072 168.078 220.091 167.64C220.111 167.202 220.023 166.719 219.829 166.19C219.639 165.674 219.394 165.246 219.093 164.908C218.792 164.57 218.448 164.345 218.061 164.233C217.674 164.121 217.256 164.148 216.808 164.312C216.342 164.484 215.996 164.745 215.772 165.096C215.551 165.445 215.436 165.848 215.427 166.303C215.42 166.757 215.506 167.227 215.685 167.712C215.868 168.21 216.107 168.622 216.403 168.947C216.701 169.269 217.044 169.482 217.432 169.586C217.822 169.687 218.248 169.652 218.708 169.483Z" fill="#AFAFBE"/>
<path d="M334.518 72.2698L335.984 72.4008L338.678 81.1269L338.797 81.1375L342.996 73.0274L344.462 73.1584L343.555 83.2998L342.406 83.1971L343.095 75.4921L342.996 75.4832L339.138 82.905L338.029 82.8059L335.548 74.8176L335.449 74.8087L334.761 82.5138L333.612 82.4111L334.518 72.2698ZM349.034 83.9492C348.301 83.8837 347.683 83.6654 347.181 83.2944C346.682 82.9204 346.315 82.4284 346.08 81.8184C345.848 81.2054 345.767 80.5093 345.837 79.7302C345.907 78.9512 346.11 78.2772 346.447 77.7083C346.788 77.1365 347.229 76.7067 347.77 76.419C348.315 76.1283 348.931 76.0136 349.618 76.075C350.014 76.1104 350.399 76.2114 350.774 76.378C351.148 76.5445 351.481 76.7905 351.771 77.116C352.062 77.4381 352.279 77.8502 352.424 78.3523C352.569 78.8544 352.61 79.4604 352.546 80.1701L352.502 80.6653L346.639 80.1413L346.729 79.1311L351.404 79.5489C351.442 79.1198 351.39 78.7291 351.249 78.3771C351.111 78.0253 350.893 77.738 350.597 77.5152C350.304 77.2927 349.947 77.1626 349.524 77.1248C349.058 77.0832 348.645 77.1628 348.285 77.3635C347.928 77.5611 347.642 77.8351 347.428 78.1853C347.213 78.5355 347.087 78.9202 347.05 79.3395L346.99 80.013C346.938 80.5874 346.994 81.0832 347.156 81.5003C347.322 81.9145 347.574 82.2414 347.912 82.4813C348.25 82.7178 348.656 82.8572 349.128 82.8994C349.435 82.9268 349.716 82.9087 349.971 82.845C350.23 82.7783 350.458 82.6656 350.655 82.5068C350.853 82.3448 351.013 82.1361 351.135 81.8809L352.236 82.2987C352.083 82.671 351.853 82.9899 351.547 83.2553C351.24 83.5175 350.874 83.711 350.447 83.8359C350.02 83.9574 349.549 83.9952 349.034 83.9492ZM356.833 84.6462C356.199 84.5896 355.654 84.3794 355.197 84.0159C354.741 83.649 354.402 83.1595 354.18 82.5474C353.959 81.9319 353.885 81.2215 353.957 80.416C354.028 79.6171 354.227 78.9361 354.554 78.3729C354.88 77.8098 355.302 77.39 355.819 77.1134C356.336 76.8369 356.915 76.7272 357.556 76.7844C358.051 76.8287 358.435 76.9462 358.707 77.1369C358.983 77.3246 359.188 77.5293 359.321 77.7508C359.458 77.9694 359.563 78.1485 359.637 78.2882L359.736 78.2971L360.071 74.5535L361.24 74.6579L360.333 84.7993L359.204 84.6984L359.309 83.5298L359.17 83.5174C359.072 83.6484 358.934 83.8124 358.757 84.0095C358.58 84.2033 358.337 84.3697 358.028 84.5085C357.72 84.644 357.322 84.6899 356.833 84.6462ZM357.085 83.6106C357.554 83.6525 357.961 83.5657 358.306 83.3504C358.652 83.1317 358.929 82.812 359.136 82.3913C359.344 81.9673 359.473 81.468 359.524 80.8936C359.575 80.3258 359.537 79.8216 359.41 79.381C359.283 78.9371 359.069 78.5818 358.766 78.3152C358.465 78.0453 358.076 77.8891 357.6 77.8466C357.105 77.8024 356.681 77.8926 356.328 78.1173C355.979 78.339 355.703 78.6587 355.499 79.0764C355.299 79.4911 355.175 79.9658 355.127 80.5006C355.079 81.042 355.117 81.5413 355.243 81.9984C355.372 82.4525 355.588 82.8246 355.892 83.1146C356.199 83.4016 356.597 83.5669 357.085 83.6106ZM362.636 85.0051L363.316 77.3991L364.484 77.5035L363.805 85.1096L362.636 85.0051ZM364.023 76.1845C363.795 76.1641 363.606 76.069 363.455 75.8991C363.307 75.7295 363.243 75.5357 363.262 75.3178C363.282 75.1 363.379 74.9207 363.555 74.78C363.734 74.6396 363.937 74.5795 364.165 74.5999C364.393 74.6203 364.58 74.7152 364.728 74.8849C364.88 75.0548 364.945 75.2487 364.926 75.4665C364.906 75.6844 364.807 75.8636 364.628 76.004C364.453 76.1447 364.251 76.2049 364.023 76.1845ZM369.933 77.9904L369.844 78.9808L365.902 78.6285L365.991 77.6382L369.933 77.9904ZM367.303 75.9185L368.471 76.023L367.823 83.2725C367.794 83.6026 367.82 83.8545 367.901 84.0281C367.985 84.1987 368.101 84.3189 368.248 84.3886C368.398 84.4553 368.559 84.4963 368.731 84.5116C368.86 84.5231 368.966 84.526 369.05 84.5201C369.134 84.511 369.201 84.5037 369.251 84.4982L369.395 85.5693C369.313 85.5919 369.2 85.6117 369.055 85.6287C368.91 85.6491 368.729 85.6495 368.511 85.63C368.181 85.6005 367.864 85.5006 367.56 85.3303C367.259 85.1604 367.017 84.9208 366.835 84.6117C366.656 84.3029 366.587 83.9273 366.626 83.485L367.303 75.9185ZM373.233 86.1319C372.751 86.0888 372.322 85.9589 371.945 85.7423C371.569 85.5223 371.281 85.2287 371.08 84.8614C370.881 84.4908 370.803 84.0579 370.847 83.5627C370.886 83.127 371.003 82.7814 371.199 82.526C371.396 82.2674 371.644 82.0733 371.945 81.9438C372.246 81.8143 372.574 81.7271 372.927 81.6821C373.284 81.6342 373.641 81.6029 373.998 81.5882C374.466 81.5701 374.845 81.559 375.135 81.555C375.428 81.548 375.644 81.5124 375.783 81.4482C375.925 81.3844 376.005 81.2584 376.021 81.0702L376.025 81.0306C376.069 80.542 375.969 80.1504 375.726 79.8558C375.486 79.5615 375.097 79.3903 374.559 79.3423C374.001 79.2924 373.552 79.3754 373.214 79.5914C372.875 79.8074 372.629 80.0483 372.475 80.3141L371.401 79.8188C371.641 79.3743 371.937 79.0381 372.29 78.8101C372.647 78.5791 373.026 78.43 373.428 78.3627C373.834 78.2925 374.228 78.2745 374.611 78.3087C374.855 78.3306 375.133 78.3854 375.445 78.4731C375.76 78.5578 376.058 78.7026 376.339 78.9074C376.624 79.1126 376.849 79.4039 377.015 79.7814C377.181 80.159 377.237 80.6498 377.183 81.2539L376.735 86.2652L375.566 86.1607L375.658 85.1308L375.599 85.1254C375.505 85.2834 375.357 85.4482 375.156 85.6199C374.954 85.7915 374.694 85.9297 374.375 86.0343C374.056 86.1389 373.675 86.1714 373.233 86.1319ZM373.505 85.098C373.967 85.1393 374.365 85.0834 374.698 84.9301C375.035 84.7772 375.296 84.5643 375.484 84.2916C375.675 84.0191 375.784 83.7244 375.812 83.4075L375.908 82.3379C375.853 82.3929 375.739 82.4376 375.567 82.4721C375.397 82.5036 375.202 82.5277 374.981 82.5446C374.764 82.5584 374.551 82.5694 374.344 82.5775C374.141 82.5826 373.976 82.5878 373.849 82.5931C373.542 82.6056 373.252 82.6446 372.98 82.7101C372.711 82.7726 372.488 82.8842 372.311 83.0447C372.137 83.2022 372.037 83.4295 372.01 83.7266C371.974 84.1326 372.097 84.4531 372.379 84.6879C372.664 84.9197 373.04 85.0564 373.505 85.098ZM382.856 79.1454L382.767 80.1358L378.826 79.7835L378.914 78.7931L382.856 79.1454ZM380.226 77.0735L381.394 77.178L380.746 84.4275C380.717 84.7576 380.743 85.0095 380.824 85.1831C380.908 85.3537 381.024 85.4739 381.171 85.5435C381.321 85.6102 381.482 85.6512 381.654 85.6666C381.783 85.6781 381.889 85.6809 381.973 85.6751C382.057 85.666 382.124 85.6587 382.174 85.6532L382.318 86.7242C382.236 86.7469 382.123 86.7667 381.978 86.7837C381.833 86.804 381.652 86.8045 381.434 86.785C381.104 86.7555 380.787 86.6556 380.483 86.4853C380.182 86.3153 379.94 86.0758 379.758 85.7667C379.58 85.4579 379.51 85.0823 379.549 84.64L380.226 77.0735ZM383.934 86.9086L384.614 79.3025L385.782 79.407L385.102 87.013L383.934 86.9086ZM385.321 78.0879C385.093 78.0676 384.904 77.9725 384.753 77.8025C384.605 77.6329 384.541 77.4392 384.56 77.2213C384.579 77.0034 384.677 76.8241 384.853 76.6834C385.032 76.543 385.235 76.483 385.463 76.5034C385.691 76.5237 385.878 76.6187 386.026 76.7883C386.177 76.9582 386.243 77.1521 386.224 77.37C386.204 77.5879 386.105 77.767 385.926 77.9074C385.751 78.0481 385.549 78.1083 385.321 78.0879ZM388.82 82.7332L388.412 87.3087L387.243 87.2043L387.923 79.5983L389.052 79.6992L388.945 80.8876L389.045 80.8965C389.257 80.5261 389.556 80.24 389.94 80.0381C390.324 79.8329 390.804 79.7559 391.378 79.8072C391.893 79.8533 392.334 79.9992 392.702 80.245C393.069 80.4875 393.341 80.8312 393.518 81.2763C393.695 81.718 393.754 82.2624 393.696 82.9094L393.264 87.7425L392.096 87.638L392.521 82.8842C392.574 82.2867 392.46 81.8074 392.18 81.4462C391.9 81.0817 391.489 80.8753 390.947 80.8269C390.574 80.7936 390.234 80.8447 389.926 80.9802C389.621 81.116 389.37 81.3315 389.174 81.6268C388.978 81.922 388.86 82.2909 388.82 82.7332ZM398.201 91.2184C397.636 91.168 397.158 91.052 396.765 90.8704C396.371 90.6922 396.05 90.4738 395.8 90.2152C395.553 89.9602 395.362 89.6936 395.227 89.4153L396.217 88.8449C396.31 88.993 396.43 89.1634 396.575 89.3561C396.721 89.5521 396.928 89.7287 397.197 89.8858C397.469 90.0466 397.834 90.1474 398.293 90.1884C398.907 90.2433 399.427 90.14 399.853 89.8786C400.279 89.6172 400.52 89.1696 400.577 88.5358L400.715 86.9908L400.616 86.9819C400.518 87.1129 400.38 87.2737 400.204 87.4642C400.03 87.6517 399.79 87.8115 399.482 87.9437C399.178 88.0729 398.778 88.1154 398.283 88.0712C397.669 88.0163 397.13 87.8217 396.668 87.4876C396.208 87.1537 395.861 86.6968 395.627 86.1168C395.396 85.5371 395.316 84.8511 395.387 84.0588C395.456 83.2797 395.654 82.6136 395.98 82.0603C396.306 81.5038 396.727 81.0889 397.244 80.8157C397.761 80.5391 398.34 80.4294 398.98 80.4867C399.476 80.5309 399.861 80.6486 400.137 80.8396C400.416 81.0276 400.624 81.2326 400.761 81.4544C400.901 81.6732 401.008 81.8525 401.082 81.9922L401.201 82.0029L401.309 80.7946L402.438 80.8955L401.739 88.7194C401.68 89.3731 401.484 89.8913 401.15 90.2741C400.82 90.6605 400.397 90.9272 399.881 91.0741C399.368 91.2246 398.808 91.2727 398.201 91.2184ZM398.535 87.0355C399.004 87.0774 399.409 87.0055 399.752 86.8199C400.095 86.6342 400.368 86.3475 400.573 85.9598C400.777 85.5721 400.904 85.0976 400.954 84.5364C401.003 83.9884 400.964 83.4974 400.836 83.0634C400.709 82.6294 400.494 82.2791 400.192 82.0125C399.889 81.7459 399.501 81.5914 399.025 81.5489C398.53 81.5046 398.106 81.5932 397.754 81.8146C397.404 82.0363 397.128 82.351 396.925 82.7588C396.726 83.1669 396.603 83.6285 396.557 84.1434C396.51 84.6716 396.551 85.1461 396.679 85.5669C396.812 85.9847 397.031 86.3238 397.337 86.5841C397.647 86.8414 398.046 86.9919 398.535 87.0355Z" fill="#AFAFBE"/>
<path d="M563.083 208.192L563.109 197.637L564.317 197.97L564.161 206.53L564.257 206.556L568.553 199.14L569.895 199.51L569.777 208.081L569.873 208.107L574.131 200.68L575.339 201.013L569.946 210.087L568.719 209.748L568.712 201.329L568.635 201.308L564.31 208.531L563.083 208.192ZM576.219 211.984C575.555 211.801 575.015 211.482 574.601 211.027C574.19 210.573 573.923 210.023 573.798 209.377C573.677 208.731 573.722 208.028 573.932 207.268C574.144 206.501 574.467 205.87 574.903 205.375C575.342 204.881 575.855 204.544 576.44 204.366C577.029 204.188 577.656 204.191 578.321 204.374C578.985 204.558 579.523 204.876 579.934 205.33C580.348 205.785 580.615 206.337 580.735 206.985C580.859 207.635 580.814 208.343 580.603 209.11C580.393 209.87 580.069 210.496 579.631 210.987C579.196 211.479 578.684 211.814 578.095 211.992C577.509 212.17 576.884 212.168 576.219 211.984ZM576.5 210.968C577.005 211.108 577.456 211.093 577.853 210.924C578.25 210.755 578.586 210.482 578.859 210.103C579.132 209.725 579.336 209.29 579.472 208.798C579.608 208.306 579.656 207.825 579.617 207.357C579.578 206.889 579.431 206.479 579.178 206.127C578.924 205.775 578.545 205.53 578.04 205.39C577.535 205.251 577.084 205.267 576.686 205.439C576.287 205.611 575.951 205.888 575.677 206.27C575.404 206.651 575.199 207.088 575.063 207.58C574.927 208.072 574.879 208.551 574.919 209.016C574.959 209.481 575.107 209.887 575.361 210.236C575.616 210.585 575.995 210.829 576.5 210.968ZM581.324 213.229L583.356 205.868L584.449 206.169L584.142 207.281L584.218 207.302C584.453 206.975 584.777 206.747 585.192 206.617C585.606 206.487 586.033 206.483 586.474 206.605C586.557 206.628 586.66 206.658 586.784 206.696C586.908 206.733 587.001 206.764 587.063 206.788L586.745 207.938C586.71 207.918 586.626 207.879 586.494 207.822C586.366 207.763 586.227 207.712 586.076 207.671C585.719 207.572 585.378 207.559 585.056 207.632C584.737 207.702 584.46 207.845 584.225 208.062C583.994 208.277 583.832 208.551 583.741 208.883L582.455 213.541L581.324 213.229ZM588.14 212.222L588.507 210.818L588.737 210.881L592.863 208.493L594.262 208.879L589.873 211.401L589.777 211.375L588.14 212.222ZM586.345 214.615L589.055 204.8L590.186 205.113L587.476 214.927L586.345 214.615ZM591.022 215.906L589.152 211.47L590.174 210.907L592.46 216.303L591.022 215.906ZM593.685 216.642L595.718 209.281L596.849 209.593L594.816 216.954L593.685 216.642ZM596.631 208.213C596.411 208.152 596.242 208.024 596.123 207.83C596.008 207.637 595.98 207.435 596.038 207.224C596.096 207.013 596.224 206.854 596.422 206.747C596.624 206.641 596.834 206.618 597.055 206.679C597.275 206.74 597.443 206.867 597.558 207.061C597.676 207.255 597.707 207.457 597.648 207.668C597.59 207.879 597.46 208.038 597.259 208.144C597.061 208.251 596.852 208.274 596.631 208.213ZM599.241 213.41L598.019 217.838L596.888 217.526L598.92 210.165L600.013 210.467L599.695 211.617L599.791 211.643C600.067 211.317 600.412 211.089 600.826 210.959C601.241 210.826 601.726 210.837 602.282 210.99C602.78 211.128 603.188 211.35 603.506 211.658C603.824 211.963 604.03 212.35 604.124 212.819C604.218 213.285 604.179 213.832 604.007 214.458L602.715 219.135L601.584 218.823L602.854 214.222C603.014 213.644 602.988 213.152 602.777 212.746C602.567 212.338 602.2 212.061 601.676 211.916C601.315 211.816 600.97 211.806 600.643 211.884C600.318 211.963 600.033 212.13 599.787 212.385C599.542 212.64 599.359 212.982 599.241 213.41ZM606.948 223.44C606.402 223.289 605.952 223.089 605.598 222.84C605.243 222.594 604.966 222.321 604.766 222.022C604.569 221.727 604.429 221.431 604.346 221.133L605.422 220.749C605.487 220.911 605.574 221.1 605.683 221.316C605.791 221.535 605.963 221.746 606.2 221.949C606.438 222.156 606.78 222.32 607.224 222.443C607.818 222.607 608.348 222.599 608.814 222.418C609.28 222.237 609.598 221.84 609.767 221.226L610.18 219.731L610.084 219.705C609.964 219.816 609.8 219.95 609.592 220.105C609.388 220.259 609.122 220.373 608.796 220.448C608.473 220.52 608.072 220.49 607.593 220.358C606.999 220.194 606.504 219.906 606.109 219.494C605.717 219.084 605.458 218.572 605.331 217.959C605.208 217.348 605.252 216.658 605.464 215.892C605.672 215.138 605.986 214.518 606.405 214.032C606.826 213.543 607.315 213.21 607.872 213.034C608.43 212.855 609.02 212.85 609.639 213.022C610.119 213.154 610.477 213.339 610.714 213.576C610.955 213.811 611.123 214.05 611.217 214.293C611.316 214.533 611.389 214.729 611.437 214.879L611.552 214.911L611.875 213.742L612.967 214.044L610.877 221.615C610.702 222.248 610.416 222.723 610.019 223.039C609.625 223.36 609.161 223.547 608.627 223.599C608.096 223.655 607.536 223.602 606.948 223.44ZM608.027 219.384C608.481 219.51 608.893 219.512 609.263 219.39C609.634 219.269 609.954 219.036 610.225 218.691C610.495 218.347 610.705 217.903 610.855 217.36C611.002 216.829 611.051 216.339 611.003 215.889C610.956 215.439 610.807 215.056 610.557 214.74C610.308 214.423 609.953 214.202 609.493 214.075C609.014 213.942 608.581 213.953 608.194 214.108C607.811 214.263 607.483 214.524 607.21 214.888C606.941 215.254 606.737 215.686 606.6 216.185C606.459 216.696 606.414 217.17 606.465 217.607C606.52 218.042 606.675 218.415 606.93 218.726C607.188 219.034 607.554 219.254 608.027 219.384ZM619.749 224.003C619.084 223.82 618.545 223.501 618.131 223.046C617.72 222.592 617.452 222.042 617.328 221.395C617.207 220.75 617.251 220.047 617.461 219.287C617.673 218.52 617.997 217.889 618.433 217.394C618.872 216.9 619.384 216.563 619.97 216.384C620.559 216.207 621.186 216.21 621.85 216.393C622.515 216.576 623.052 216.895 623.463 217.349C623.878 217.804 624.145 218.356 624.265 219.004C624.388 219.654 624.344 220.362 624.132 221.129C623.922 221.889 623.598 222.515 623.16 223.006C622.725 223.498 622.213 223.833 621.624 224.01C621.038 224.189 620.413 224.187 619.749 224.003ZM620.029 222.987C620.534 223.127 620.985 223.112 621.383 222.943C621.78 222.774 622.115 222.501 622.388 222.122C622.661 221.744 622.865 221.308 623.001 220.816C623.137 220.324 623.185 219.844 623.146 219.376C623.107 218.908 622.961 218.498 622.707 218.146C622.453 217.794 622.074 217.548 621.57 217.409C621.065 217.27 620.613 217.286 620.215 217.458C619.817 217.63 619.481 217.907 619.207 218.288C618.933 218.67 618.728 219.107 618.592 219.599C618.457 220.091 618.409 220.569 618.449 221.034C618.489 221.499 618.636 221.906 618.891 222.255C619.145 222.604 619.525 222.848 620.029 222.987ZM630.323 223.519L631.524 219.167L632.655 219.48L630.623 226.841L629.492 226.528L629.836 225.282L629.759 225.261C629.484 225.587 629.127 225.831 628.691 225.992C628.255 226.151 627.759 226.153 627.204 226C626.743 225.873 626.362 225.659 626.06 225.359C625.759 225.056 625.562 224.671 625.471 224.206C625.38 223.737 625.421 223.19 625.594 222.564L626.885 217.886L628.016 218.199L626.746 222.799C626.598 223.336 626.63 223.806 626.842 224.208C627.057 224.611 627.4 224.878 627.869 225.007C628.151 225.085 628.456 225.092 628.787 225.029C629.12 224.966 629.427 224.814 629.707 224.571C629.991 224.33 630.196 223.979 630.323 223.519ZM637.928 220.935L637.663 221.894L633.849 220.841L634.113 219.882L637.928 220.935ZM635.712 218.426L636.843 218.738L634.906 225.754C634.818 226.073 634.798 226.326 634.846 226.511C634.899 226.694 634.991 226.833 635.123 226.928C635.259 227.02 635.41 227.09 635.577 227.135C635.701 227.17 635.805 227.192 635.889 227.201C635.973 227.207 636.04 227.212 636.091 227.216L636.04 228.295C635.956 228.303 635.841 228.302 635.695 228.293C635.549 228.287 635.371 228.255 635.16 228.196C634.84 228.108 634.546 227.953 634.278 227.731C634.012 227.51 633.817 227.231 633.694 226.894C633.573 226.558 633.572 226.176 633.69 225.748L635.712 218.426Z" fill="#AFAFBE"/>
<rect x="0.858429" y="44.4512" width="68.1952" height="68.1952" rx="2.90625" transform="rotate(-23.1475 0.858429 44.4512)" stroke="white" stroke-opacity="0.05" stroke-width="0.645833"/>
<path d="M36.0555 51.2277L41.9639 65.048L39.4603 66.1183L34.5934 54.7341L34.5124 54.7688L32.1628 58.2156L31.1819 55.9212L33.6734 52.2461L36.0555 51.2277ZM44.127 61.0903L43.2759 59.0995L45.1791 47.3272L46.8391 46.6175L48.0508 49.4518L47.0386 49.8845L45.7652 57.8278L45.8114 57.9358L53.997 54.4363L54.8769 56.4945L44.127 61.0903ZM51.8163 60.836L50.4603 57.6643L50.1065 56.762L45.9349 47.0041L48.2967 45.9944L54.2051 59.8147L51.8163 60.836Z" fill="#52525B"/>
<path d="M43.975 80.6302C43.5432 80.8148 43.1152 80.8687 42.6913 80.7919C42.2664 80.7128 41.875 80.513 41.5171 80.1924C41.1583 79.8696 40.8616 79.4337 40.6269 78.8849C40.3942 78.3405 40.2856 77.8282 40.3011 77.348C40.3166 76.8678 40.4442 76.4475 40.6839 76.0869C40.9235 75.7264 41.2615 75.4529 41.6979 75.2663C42.0353 75.1221 42.3259 75.0644 42.5697 75.0932C42.8147 75.1188 43.0193 75.1803 43.1833 75.2778C43.3487 75.372 43.4798 75.4517 43.5768 75.5166L43.6443 75.4878L42.5538 72.937L43.35 72.5965L46.3042 79.5067L45.535 79.8356L45.1945 79.0393L45.1001 79.0797C45.082 79.1991 45.0497 79.3539 45.0033 79.5441C44.9559 79.7319 44.8561 79.9249 44.704 80.123C44.5509 80.3188 44.308 80.4878 43.975 80.6302ZM43.7772 79.8687C44.0966 79.7321 44.331 79.5335 44.4802 79.2728C44.6286 79.0099 44.6966 78.7054 44.6844 78.3594C44.6712 78.0112 44.581 77.6414 44.4136 77.25C44.2482 76.8631 44.0473 76.5486 43.8107 76.3066C43.5733 76.0622 43.3097 75.9062 43.02 75.8385C42.7293 75.7685 42.4221 75.8028 42.0982 75.9412C41.7607 76.0855 41.5166 76.2923 41.3657 76.5617C41.2161 76.8278 41.148 77.1323 41.1616 77.475C41.1764 77.8146 41.2616 78.1666 41.4174 78.531C41.5751 78.8999 41.7747 79.211 42.016 79.4643C42.2586 79.7144 42.5293 79.8808 42.8279 79.9633C43.1279 80.0425 43.4443 80.011 43.7772 79.8687ZM49.4502 78.3054C49.1218 78.4458 48.7973 78.5114 48.4768 78.5021C48.1552 78.4905 47.8652 78.4003 47.6068 78.2315C47.3474 78.0604 47.1456 77.8061 47.0013 77.4687C46.8744 77.1718 46.83 76.9061 46.8681 76.6716C46.9053 76.4349 46.9991 76.2219 47.1496 76.0325C47.3001 75.8431 47.4824 75.672 47.6964 75.5193C47.9118 75.3634 48.1331 75.2183 48.3603 75.0839C48.6579 74.9087 48.9002 74.7692 49.0873 74.6653C49.2756 74.5582 49.4037 74.4595 49.4716 74.3693C49.5417 74.2782 49.5493 74.1685 49.4945 74.0403L49.483 74.0133C49.3406 73.6804 49.1389 73.4606 48.8779 73.3541C48.6191 73.2466 48.3063 73.2712 47.9397 73.4279C47.5595 73.5904 47.2971 73.8011 47.1523 74.0599C47.0075 74.3186 46.9317 74.5613 46.9247 74.7877L46.0535 74.8409C46.0538 74.4683 46.129 74.1462 46.2789 73.8745C46.4301 73.5997 46.6247 73.3702 46.8625 73.186C47.1017 72.9987 47.3517 72.8492 47.6127 72.7377C47.7791 72.6665 47.979 72.605 48.2122 72.5532C48.4468 72.4981 48.6912 72.4881 48.9456 72.523C49.2022 72.5569 49.4504 72.6677 49.6902 72.8551C49.93 73.0426 50.1379 73.3422 50.3139 73.7538L51.7737 77.1684L50.9774 77.5088L50.6773 76.807L50.6368 76.8243C50.6309 76.9599 50.5924 77.1187 50.5213 77.3008C50.4501 77.4828 50.3292 77.6636 50.1584 77.843C49.9877 78.0224 49.7516 78.1765 49.4502 78.3054ZM49.2659 77.5382C49.5808 77.4035 49.8198 77.2282 49.9828 77.0122C50.1481 76.7952 50.2441 76.5652 50.2706 76.3224C50.2994 76.0786 50.2677 75.8488 50.1753 75.6328L49.8638 74.904C49.8473 74.959 49.789 75.0278 49.6887 75.1106C49.5897 75.1902 49.4712 75.2741 49.3334 75.3623C49.1968 75.4473 49.0626 75.5286 48.9308 75.6062C48.8003 75.6806 48.6947 75.7417 48.6141 75.7895C48.4187 75.905 48.244 76.0315 48.09 76.1692C47.9373 76.3036 47.8313 76.454 47.7721 76.6204C47.7141 76.7835 47.7284 76.9663 47.8149 77.1687C47.9332 77.4454 48.125 77.6109 48.3903 77.6651C48.6569 77.716 48.9487 77.6737 49.2659 77.5382ZM54.3852 78.3506C54.2502 78.4083 54.1251 78.4485 54.0098 78.4712C53.8954 78.4962 53.8136 78.5072 53.7645 78.5043L53.6669 77.7159C53.8815 77.6827 54.0601 77.6276 54.2028 77.5506C54.3455 77.4737 54.4487 77.351 54.5125 77.1828C54.5794 77.0158 54.605 76.7801 54.5892 76.4755L54.5646 76.0072L50.4209 71.6169L51.2847 71.2476L54.4809 74.7659L54.5349 74.7428L54.1999 70.0013L55.0637 69.632L55.4025 76.5109C55.418 76.8209 55.3901 77.0949 55.3189 77.3329C55.2487 77.5731 55.1351 77.7773 54.9782 77.9454C54.8236 78.1127 54.6259 78.2477 54.3852 78.3506ZM60.2819 68.774L59.6532 69.2822C59.5572 69.1822 59.4413 69.0948 59.3055 69.0198C59.171 68.9416 59.0137 68.8971 58.8335 68.8864C58.6533 68.8756 58.4473 68.9198 58.2156 69.0188C57.8985 69.1544 57.6654 69.3405 57.5165 69.5771C57.3688 69.8105 57.3426 70.0386 57.4378 70.2612C57.5224 70.4592 57.6613 70.5848 57.8543 70.6379C58.0473 70.6911 58.3131 70.6905 58.6517 70.6362L59.5018 70.4963C60.0132 70.4107 60.4321 70.4351 60.7583 70.5697C61.0836 70.702 61.3236 70.9492 61.4785 71.3114C61.6054 71.6083 61.6334 71.9103 61.5625 72.2173C61.4938 72.5234 61.3364 72.8088 61.0905 73.0736C60.8445 73.3384 60.5202 73.5568 60.1176 73.729C59.589 73.9549 59.1024 74.0273 58.6579 73.9459C58.2134 73.8646 57.8508 73.6232 57.5701 73.2217L58.2451 72.7097C58.4363 72.9578 58.6619 73.1088 58.9217 73.1627C59.1838 73.2156 59.4779 73.1724 59.804 73.0329C60.1752 72.8742 60.4362 72.6695 60.5871 72.4188C60.7392 72.1648 60.7677 71.9265 60.6725 71.7038C60.5956 71.5239 60.4682 71.4001 60.2903 71.3325C60.1114 71.2626 59.8785 71.2531 59.5916 71.3039L58.6413 71.4707C58.1186 71.5612 57.6954 71.5359 57.3718 71.3949C57.0494 71.2507 56.8117 70.9998 56.6588 70.6422C56.5338 70.3497 56.5053 70.056 56.5734 69.7608C56.6437 69.4647 56.7942 69.1915 57.0251 68.9411C57.2582 68.6898 57.557 68.4863 57.9214 68.3305C58.4342 68.1112 58.885 68.0516 59.2735 68.1515C59.6644 68.2505 60.0005 68.458 60.2819 68.774Z" fill="#3F3F46"/>
<rect x="735.172" y="0.449168" width="68.1952" height="68.1952" rx="2.90625" transform="rotate(34.5983 735.172 0.449168)" stroke="white" stroke-opacity="0.05" stroke-width="0.645833"/>
<path d="M737.519 44.9567C736.649 44.3566 735.979 43.6742 735.508 42.9094C735.041 42.1474 734.795 41.3659 734.772 40.5648C734.748 39.7637 734.964 39.0064 735.42 38.293L737.692 39.8599C737.481 40.2081 737.391 40.5764 737.42 40.9651C737.452 41.3496 737.588 41.7257 737.827 42.0932C738.067 42.4607 738.395 42.7876 738.809 43.0737C739.252 43.3793 739.698 43.5737 740.146 43.6568C740.596 43.7358 741.014 43.7031 741.399 43.5586C741.784 43.414 742.1 43.1591 742.346 42.7939C742.608 42.4221 742.739 42.0252 742.739 41.6031C742.739 41.181 742.607 40.7603 742.344 40.3408C742.085 39.9241 741.693 39.5352 741.17 39.174L740.076 38.4198L741.268 36.692L742.361 37.4463C742.792 37.7435 743.22 37.9288 743.645 38.002C744.074 38.078 744.474 38.045 744.846 37.903C745.22 37.7569 745.529 37.5033 745.772 37.142C746.018 36.7944 746.149 36.4362 746.166 36.0673C746.189 35.6972 746.106 35.3396 745.916 34.9946C745.73 34.6524 745.444 34.3479 745.057 34.0812C744.679 33.82 744.281 33.6468 743.864 33.5615C743.448 33.4762 743.053 33.4923 742.681 33.6099C742.311 33.7235 742.001 33.9493 741.75 34.2873L739.593 32.7996C740.087 32.118 740.706 31.6474 741.45 31.3877C742.2 31.1268 742.999 31.0716 743.846 31.2221C744.696 31.3686 745.522 31.7183 746.323 32.2711C747.149 32.8407 747.759 33.4902 748.153 34.2198C748.554 34.9482 748.743 35.6874 748.719 36.4376C748.695 37.1877 748.466 37.8769 748.032 38.5052C747.556 39.2047 746.948 39.647 746.208 39.832C745.472 40.0199 744.72 39.9557 743.951 39.6395L743.884 39.7362C744.671 40.4571 745.115 41.2391 745.217 42.0821C745.326 42.9239 745.112 43.7301 744.574 44.5005C744.096 45.1933 743.471 45.6774 742.699 45.9528C741.933 46.227 741.099 46.2817 740.196 46.1167C739.298 45.9545 738.405 45.5679 737.519 44.9567ZM748.687 52.7586C747.693 52.0724 747.012 51.2317 746.647 50.2365C746.288 49.2401 746.247 48.1327 746.522 46.9143C746.805 45.6946 747.412 44.4102 748.342 43.061C749.277 41.7146 750.26 40.6987 751.292 40.0134C752.33 39.3269 753.376 38.9784 754.429 38.9679C755.486 38.9603 756.51 39.2981 757.501 39.9816C758.492 40.665 759.171 41.5023 759.54 42.4934C759.908 43.4845 759.954 44.5859 759.677 45.7975C759.404 47.0119 758.803 48.2917 757.875 49.6369C756.942 50.9901 755.953 52.014 754.909 52.7086C753.872 53.4019 752.824 53.7545 751.764 53.7662C750.708 53.7806 749.682 53.4448 748.687 52.7586ZM749.992 50.8677C750.765 51.4011 751.638 51.4414 752.61 50.9886C753.589 50.5345 754.591 49.5644 755.616 48.0783C756.294 47.0956 756.761 46.1992 757.016 45.3889C757.272 44.5787 757.329 43.8752 757.188 43.2786C757.05 42.6779 756.725 42.2011 756.213 41.8483C755.444 41.3176 754.572 41.2808 753.597 41.7376C752.625 42.1904 751.629 43.1524 750.608 44.6237C749.923 45.6076 749.449 46.5053 749.187 47.3168C748.928 48.1311 748.868 48.8386 749.007 49.4393C749.148 50.0359 749.476 50.5121 749.992 50.8677Z" fill="#52525B"/>
<path d="M727.586 56.2208C727.2 55.9541 726.926 55.621 726.764 55.2214C726.605 54.8199 726.565 54.3823 726.645 53.9085C726.726 53.4328 726.937 52.9492 727.276 52.4579C727.612 51.9706 727.987 51.6053 728.401 51.3622C728.816 51.119 729.239 51.0026 729.672 51.0128C730.105 51.0231 730.517 51.163 730.907 51.4325C731.209 51.6408 731.413 51.8558 731.519 52.0773C731.628 52.2982 731.685 52.504 731.69 52.6948C731.699 52.8849 731.701 53.0383 731.698 53.155L731.759 53.1967L733.334 50.9131L734.047 51.4049L729.78 57.591L729.091 57.1159L729.583 56.4031L729.498 56.3447C729.387 56.3932 729.239 56.4485 729.054 56.5107C728.869 56.5709 728.653 56.5895 728.404 56.5666C728.157 56.5416 727.884 56.4264 727.586 56.2208ZM728.125 55.6471C728.411 55.8443 728.704 55.9365 729.004 55.9236C729.305 55.9087 729.599 55.8038 729.885 55.6088C730.173 55.4119 730.437 55.1382 730.679 54.7878C730.918 54.4414 731.077 54.1036 731.155 53.7744C731.235 53.4432 731.226 53.137 731.129 52.8559C731.033 52.5728 730.84 52.3312 730.55 52.1312C730.248 51.9228 729.943 51.8267 729.634 51.8428C729.33 51.8584 729.036 51.9633 728.753 52.1576C728.474 52.3513 728.222 52.6113 727.997 52.9375C727.769 53.2678 727.612 53.6026 727.527 53.9418C727.445 54.2805 727.449 54.5981 727.538 54.8947C727.631 55.1907 727.827 55.4415 728.125 55.6471ZM732.474 59.6104C732.18 59.4076 731.952 59.1682 731.789 58.8921C731.627 58.614 731.548 58.3207 731.553 58.012C731.559 57.7013 731.667 57.3949 731.875 57.0929C732.058 56.8271 732.259 56.6477 732.478 56.5548C732.698 56.4599 732.928 56.4256 733.169 56.4518C733.409 56.478 733.651 56.5409 733.895 56.6404C734.141 56.7393 734.382 56.849 734.617 56.9694C734.924 57.1276 735.171 57.2581 735.359 57.3609C735.55 57.463 735.702 57.5186 735.814 57.5279C735.929 57.5385 736.026 57.4864 736.105 57.3717L736.122 57.3475C736.327 57.0495 736.405 56.7616 736.356 56.484C736.309 56.2077 736.121 55.9564 735.793 55.73C735.453 55.4952 735.135 55.3857 734.838 55.4013C734.542 55.417 734.297 55.4823 734.101 55.5973L733.592 54.8889C733.907 54.6904 734.219 54.582 734.529 54.5638C734.842 54.545 735.14 54.5871 735.423 54.69C735.709 54.7922 735.969 54.9239 736.202 55.085C736.351 55.1878 736.51 55.324 736.678 55.4936C736.85 55.6626 736.989 55.864 737.095 56.0977C737.203 56.3329 737.242 56.6019 737.212 56.9047C737.181 57.2075 737.039 57.5432 736.784 57.9117L734.676 60.9685L733.963 60.4768L734.396 59.8485L734.36 59.8235C734.242 59.8909 734.087 59.943 733.896 59.98C733.704 60.017 733.486 60.0112 733.243 59.9626C733.001 59.9139 732.744 59.7965 732.474 59.6104ZM733.025 59.0451C733.307 59.2395 733.583 59.3481 733.852 59.3707C734.124 59.3946 734.37 59.3531 734.589 59.2459C734.811 59.1402 734.988 58.9907 735.121 58.7974L735.572 58.1449C735.516 58.1603 735.427 58.1477 735.303 58.1071C735.183 58.0658 735.049 58.0104 734.901 57.9409C734.756 57.8707 734.616 57.8007 734.48 57.7306C734.347 57.66 734.239 57.6033 734.156 57.5606C733.954 57.457 733.754 57.3768 733.555 57.32C733.36 57.2627 733.176 57.2533 733.004 57.292C732.835 57.33 732.688 57.4396 732.563 57.6209C732.392 57.8685 732.354 58.119 732.45 58.3723C732.549 58.6249 732.741 58.8492 733.025 59.0451ZM735.07 63.808C734.949 63.7247 734.848 63.6403 734.767 63.5549C734.685 63.4714 734.632 63.4082 734.609 63.3651L735.223 62.8618C735.366 63.0256 735.508 63.1472 735.649 63.2268C735.79 63.3064 735.949 63.3283 736.125 63.2924C736.302 63.2599 736.515 63.1557 736.764 62.9799L737.147 62.7091L738.649 56.8618L739.422 57.3952L738.152 61.9759L738.201 62.0092L742.032 59.1955L742.805 59.7289L737.169 63.6866C736.915 63.8651 736.668 63.9877 736.429 64.0545C736.188 64.1233 735.955 64.1362 735.729 64.0933C735.505 64.0517 735.285 63.9566 735.07 63.808ZM746.316 63.684L745.55 63.4235C745.584 63.289 745.596 63.1443 745.587 62.9894C745.581 62.834 745.535 62.6772 745.448 62.519C745.36 62.3609 745.213 62.2103 745.006 62.0672C744.722 61.8714 744.44 61.7736 744.161 61.7739C743.884 61.7736 743.678 61.8731 743.54 62.0725C743.418 62.2497 743.386 62.4341 743.444 62.6257C743.502 62.8173 743.644 63.0418 743.871 63.2992L744.443 63.9434C744.788 64.3302 744.991 64.6975 745.051 65.0452C745.113 65.3909 745.032 65.7258 744.808 66.05C744.625 66.3159 744.385 66.5007 744.087 66.6045C743.792 66.7098 743.466 66.7291 743.111 66.6624C742.756 66.5957 742.398 66.438 742.037 66.1893C741.564 65.8629 741.243 65.49 741.075 65.0707C740.907 64.6514 740.917 64.2159 741.107 63.7643L741.9 64.0619C741.792 64.356 741.785 64.6273 741.878 64.8758C741.973 65.1257 742.167 65.3513 742.459 65.5527C742.791 65.7819 743.103 65.8934 743.396 65.8872C743.692 65.8803 743.909 65.7772 744.046 65.5779C744.157 65.4168 744.194 65.243 744.156 65.0565C744.12 64.8679 744.004 64.6659 743.808 64.4504L743.159 63.7357C742.804 63.342 742.599 62.9706 742.546 62.6216C742.496 62.272 742.581 61.9372 742.802 61.617C742.983 61.3552 743.216 61.1743 743.502 61.0744C743.79 60.9758 744.101 60.9573 744.436 61.0189C744.773 61.082 745.105 61.226 745.431 61.451C745.89 61.7677 746.181 62.1171 746.304 62.499C746.429 62.8823 746.433 63.2773 746.316 63.684Z" fill="#3F3F46"/>
<rect x="398.565" y="142.793" width="68.841" height="68.841" rx="3.22917" transform="rotate(18.1094 398.565 142.793)" fill="#27272A"/>
<path d="M416.299 185.86L426.307 175.821L426.339 175.723L419.287 173.417L419.994 171.255L429.725 174.437L429.002 176.648L418.984 186.738L416.299 185.86Z" fill="#10B981"/>
<path d="M407.327 198.83C406.881 198.684 406.524 198.442 406.256 198.105C405.988 197.765 405.826 197.357 405.768 196.88C405.711 196.401 405.776 195.877 405.961 195.31C406.145 194.747 406.402 194.291 406.73 193.94C407.058 193.589 407.431 193.357 407.849 193.244C408.267 193.131 408.702 193.148 409.153 193.296C409.501 193.41 409.758 193.558 409.922 193.741C410.09 193.921 410.203 194.103 410.262 194.284C410.324 194.464 410.37 194.61 410.4 194.723L410.47 194.746L411.332 192.109L412.155 192.378L409.819 199.521L409.024 199.261L409.293 198.438L409.196 198.406C409.103 198.484 408.977 198.579 408.817 198.691C408.657 198.801 408.455 198.881 408.21 198.929C407.966 198.976 407.672 198.942 407.327 198.83ZM407.681 198.127C408.011 198.235 408.318 198.24 408.602 198.143C408.887 198.043 409.139 197.859 409.358 197.591C409.578 197.32 409.754 196.983 409.886 196.578C410.017 196.178 410.073 195.809 410.055 195.471C410.038 195.131 409.942 194.84 409.769 194.598C409.597 194.354 409.343 194.177 409.008 194.067C408.66 193.953 408.34 193.948 408.049 194.051C407.761 194.152 407.509 194.336 407.293 194.603C407.08 194.868 406.912 195.188 406.789 195.565C406.664 195.946 406.609 196.312 406.623 196.662C406.641 197.01 406.735 197.313 406.905 197.572C407.078 197.829 407.337 198.014 407.681 198.127ZM412.976 200.693C412.637 200.582 412.35 200.417 412.115 200.199C411.881 199.978 411.722 199.719 411.639 199.422C411.557 199.122 411.573 198.798 411.687 198.449C411.788 198.142 411.929 197.913 412.113 197.762C412.297 197.608 412.508 197.51 412.746 197.467C412.984 197.424 413.234 197.415 413.495 197.442C413.76 197.467 414.022 197.503 414.282 197.552C414.621 197.617 414.895 197.672 415.104 197.717C415.316 197.761 415.478 197.771 415.588 197.748C415.701 197.725 415.779 197.648 415.822 197.516L415.831 197.488C415.944 197.144 415.937 196.845 415.811 196.593C415.688 196.342 415.436 196.154 415.057 196.03C414.664 195.901 414.328 195.887 414.049 195.986C413.769 196.085 413.552 196.217 413.398 196.383L412.708 195.848C412.954 195.568 413.222 195.376 413.514 195.27C413.809 195.164 414.107 195.119 414.407 195.138C414.71 195.155 414.997 195.207 415.267 195.295C415.439 195.352 415.629 195.437 415.839 195.552C416.052 195.665 416.242 195.819 416.41 196.013C416.581 196.208 416.694 196.455 416.751 196.754C416.808 197.053 416.766 197.415 416.627 197.841L415.473 201.37L414.65 201.101L414.887 200.375L414.845 200.362C414.751 200.46 414.618 200.554 414.444 200.644C414.271 200.734 414.06 200.79 413.814 200.812C413.567 200.834 413.288 200.795 412.976 200.693ZM413.344 199.994C413.669 200.101 413.965 200.127 414.23 200.072C414.497 200.018 414.721 199.908 414.901 199.743C415.083 199.579 415.211 199.385 415.284 199.162L415.53 198.408C415.482 198.439 415.392 198.452 415.263 198.448C415.136 198.443 414.991 198.428 414.829 198.403C414.671 198.377 414.516 198.35 414.366 198.321C414.219 198.291 414.099 198.267 414.007 198.25C413.784 198.208 413.569 198.188 413.363 198.19C413.159 198.19 412.98 198.233 412.826 198.319C412.675 198.404 412.565 198.551 412.497 198.76C412.403 199.046 412.438 199.297 412.602 199.512C412.769 199.726 413.016 199.887 413.344 199.994ZM416.657 203.981C416.517 203.935 416.396 203.883 416.295 203.824C416.192 203.767 416.124 203.722 416.089 203.687L416.535 203.03C416.718 203.147 416.889 203.223 417.047 203.259C417.205 203.296 417.363 203.271 417.522 203.187C417.683 203.106 417.858 202.945 418.046 202.706L418.337 202.338L418.117 196.305L419.01 196.597L419.092 201.349L419.148 201.368L422.023 197.582L422.916 197.874L418.635 203.269C418.442 203.512 418.24 203.7 418.03 203.832C417.818 203.966 417.598 204.045 417.37 204.067C417.143 204.091 416.905 204.062 416.657 203.981ZM427.405 200.67L426.597 200.638C426.591 200.499 426.561 200.357 426.509 200.211C426.459 200.064 426.37 199.926 426.242 199.8C426.113 199.673 425.929 199.57 425.69 199.492C425.362 199.384 425.064 199.371 424.796 199.45C424.531 199.528 424.361 199.683 424.286 199.913C424.219 200.117 424.24 200.303 424.351 200.471C424.461 200.638 424.661 200.813 424.951 200.995L425.682 201.45C426.123 201.723 426.422 202.018 426.579 202.334C426.736 202.648 426.753 202.992 426.631 203.367C426.531 203.674 426.352 203.919 426.097 204.103C425.843 204.288 425.537 204.399 425.177 204.436C424.818 204.472 424.43 204.423 424.014 204.287C423.467 204.108 423.054 203.842 422.773 203.487C422.493 203.133 422.379 202.712 422.433 202.226L423.278 202.286C423.258 202.598 423.328 202.861 423.488 203.072C423.65 203.285 423.9 203.446 424.237 203.557C424.621 203.682 424.952 203.7 425.231 203.611C425.512 203.521 425.691 203.36 425.766 203.13C425.827 202.944 425.813 202.767 425.724 202.599C425.635 202.429 425.467 202.268 425.217 202.117L424.393 201.616C423.94 201.339 423.639 201.041 423.489 200.721C423.341 200.4 423.328 200.055 423.449 199.685C423.548 199.383 423.72 199.144 423.966 198.966C424.214 198.79 424.507 198.684 424.846 198.648C425.187 198.613 425.546 198.657 425.923 198.78C426.453 198.954 426.831 199.206 427.057 199.537C427.286 199.869 427.402 200.247 427.405 200.67Z" fill="#A1A1AA"/>
<rect x="181.891" y="57.9473" width="35.5308" height="35.5308" rx="5" transform="rotate(-20.4102 181.891 57.9473)" fill="#10B981"/>
<g clip-path="url(#clip0_1305_230)">
<path d="M200.078 70.9344L204.579 72.9941L208.524 63.5238" stroke="#073F2C" stroke-width="2" stroke-linecap="round" stroke-linejoin="round"/>
</g>
<rect x="629.997" y="106.328" width="35.5308" height="35.5308" rx="5" transform="rotate(-20.4102 629.997 106.328)" fill="#10B981"/>
<g clip-path="url(#clip1_1305_230)">
<path d="M648.184 119.315L652.685 121.375L656.63 111.905" stroke="#073F2C" stroke-width="2" stroke-linecap="round" stroke-linejoin="round"/>
</g>
<rect x="499.365" y="13.9941" width="35.5308" height="35.5308" rx="5" transform="rotate(22.7014 499.365 13.9941)" fill="#10B981"/>
<path d="M503.765 35.905L505.643 40.4846L514.995 36.2671" stroke="#073F2C" stroke-width="2" stroke-linecap="round" stroke-linejoin="round"/>
<rect x="305.678" y="192.09" width="35.5308" height="35.5308" rx="5" transform="rotate(-17.248 305.678 192.09)" fill="#10B981"/>
<path d="M323.121 206.062L327.501 208.367L331.963 199.129" stroke="#073F2C" stroke-width="2" stroke-linecap="round" stroke-linejoin="round"/>
<rect x="895.756" y="49.5234" width="35.5308" height="35.5308" rx="5" transform="rotate(22.7014 895.756 49.5234)" fill="#10B981"/>
<path d="M900.156 71.4343L902.034 76.0139L911.386 71.7964" stroke="#073F2C" stroke-width="2" stroke-linecap="round" stroke-linejoin="round"/>
<rect x="711.051" y="195.631" width="35.5308" height="35.5308" rx="5" transform="rotate(-4.63727 711.051 195.631)" fill="#10B981"/>
<path d="M725.023 213.073L728.794 216.278L735.165 208.237" stroke="#073F2C" stroke-width="2" stroke-linecap="round" stroke-linejoin="round"/>
<defs>
<clipPath id="clip0_1305_230">
<rect width="16" height="16" fill="white" transform="translate(194.449 63.6934) rotate(-20.4102)"/>
</clipPath>
<clipPath id="clip1_1305_230">
<rect width="16" height="16" fill="white" transform="translate(642.555 112.074) rotate(-20.4102)"/>
</clipPath>
</defs>
</svg>
