<svg width="428" height="346" viewBox="0 0 428 346" fill="none" xmlns="http://www.w3.org/2000/svg">
<path d="M69.0585 121.12L70.4697 121.538L71.39 130.624L71.5045 130.658L77.2202 123.535L78.6313 123.952L75.7428 133.716L74.6368 133.389L76.8314 125.971L76.7361 125.943L71.4904 132.458L70.4225 132.142L69.566 123.821L69.4706 123.793L67.276 131.211L66.17 130.884L69.0585 121.12ZM80.9859 135.433C80.2803 135.224 79.7177 134.888 79.2982 134.426C78.8828 133.96 78.62 133.406 78.5099 132.761C78.404 132.115 78.4619 131.417 78.6838 130.666C78.9058 129.916 79.238 129.296 79.6806 128.805C80.1273 128.311 80.6444 127.977 81.232 127.801C81.8237 127.624 82.4501 127.633 83.1112 127.829C83.4926 127.941 83.8504 128.116 84.1846 128.354C84.5189 128.591 84.7962 128.897 85.0167 129.274C85.2381 129.647 85.3703 130.094 85.4132 130.615C85.4562 131.135 85.3766 131.737 85.1744 132.421L85.0334 132.897L79.3889 131.228L79.6766 130.255L84.1769 131.586C84.2992 131.173 84.3256 130.78 84.2563 130.407C84.1901 130.035 84.0338 129.71 83.7873 129.434C83.544 129.158 83.219 128.96 82.8122 128.839C82.364 128.707 81.9434 128.703 81.5502 128.829C81.1611 128.952 80.827 129.164 80.5479 129.466C80.2687 129.767 80.0694 130.119 79.95 130.523L79.7582 131.171C79.5946 131.724 79.5512 132.221 79.6281 132.662C79.7092 133.101 79.8917 133.471 80.1757 133.773C80.4607 134.071 80.8304 134.288 81.2849 134.422C81.5804 134.51 81.8596 134.547 82.1224 134.535C82.3894 134.521 82.6352 134.455 82.8598 134.339C83.0854 134.219 83.2835 134.046 83.454 133.82L84.4507 134.446C84.2272 134.781 83.939 135.049 83.5861 135.248C83.2342 135.445 82.8365 135.562 82.3932 135.6C81.9508 135.635 81.4817 135.58 80.9859 135.433ZM88.4944 137.654C87.8842 137.474 87.3911 137.16 87.0151 136.714C86.64 136.264 86.4043 135.717 86.3079 135.074C86.2124 134.427 86.2794 133.715 86.5088 132.94C86.7363 132.171 87.0657 131.542 87.4969 131.055C87.928 130.567 88.4244 130.239 88.986 130.07C89.5476 129.9 90.1366 129.907 90.7532 130.089C91.2299 130.231 91.5831 130.421 91.8125 130.662C92.0462 130.901 92.2064 131.142 92.2934 131.385C92.3845 131.626 92.4525 131.823 92.4976 131.974L92.5929 132.002L93.6592 128.398L94.7843 128.731L91.8957 138.495L90.8088 138.173L91.1416 137.048L91.0082 137.009C90.886 137.118 90.7186 137.251 90.5059 137.41C90.2941 137.565 90.0233 137.68 89.6934 137.755C89.3644 137.827 88.9648 137.794 88.4944 137.654ZM88.946 136.689C89.3973 136.822 89.8135 136.818 90.1945 136.675C90.5765 136.528 90.9106 136.269 91.1968 135.898C91.4839 135.523 91.7093 135.059 91.8729 134.506C92.0346 133.96 92.0967 133.458 92.0591 133.001C92.0224 132.541 91.8822 132.15 91.6384 131.829C91.3956 131.505 91.0453 131.275 90.5877 131.14C90.111 130.999 89.6775 131.003 89.2873 131.154C88.9011 131.303 88.567 131.561 88.285 131.931C88.007 132.298 87.7918 132.739 87.6395 133.254C87.4853 133.775 87.4247 134.272 87.4576 134.745C87.4946 135.216 87.6333 135.623 87.8737 135.967C88.1182 136.309 88.4756 136.55 88.946 136.689ZM94.1126 139.151L96.2789 131.828L97.404 132.161L95.2376 139.483L94.1126 139.151ZM97.2121 130.777C96.9928 130.712 96.8258 130.581 96.7111 130.385C96.5995 130.189 96.5748 129.987 96.6368 129.777C96.6989 129.567 96.8299 129.411 97.0298 129.307C97.2329 129.205 97.4441 129.186 97.6634 129.251C97.8827 129.316 98.0481 129.446 98.1597 129.642C98.2744 129.838 98.3007 130.041 98.2387 130.251C98.1766 130.461 98.044 130.617 97.8409 130.719C97.641 130.822 97.4314 130.842 97.2121 130.777ZM102.649 133.713L102.367 134.666L98.5724 133.543L98.8545 132.59L102.649 133.713ZM100.48 131.163L101.605 131.496L99.5398 138.475C99.4458 138.793 99.4213 139.045 99.4665 139.231C99.5158 139.415 99.6055 139.556 99.7357 139.653C99.8701 139.748 100.02 139.82 100.185 139.869C100.309 139.905 100.413 139.929 100.496 139.94C100.58 139.948 100.647 139.954 100.698 139.958L100.628 141.037C100.543 141.043 100.428 141.04 100.283 141.028C100.137 141.019 99.9589 140.984 99.7491 140.922C99.4313 140.828 99.1401 140.667 98.8754 140.44C98.6139 140.214 98.4244 139.932 98.3069 139.593C98.1926 139.255 98.1984 138.873 98.3244 138.447L100.48 131.163ZM104.279 142.345C103.815 142.208 103.42 141.996 103.094 141.709C102.768 141.419 102.543 141.075 102.42 140.675C102.297 140.272 102.306 139.833 102.447 139.356C102.571 138.936 102.754 138.621 102.997 138.409C103.24 138.194 103.522 138.053 103.843 137.985C104.163 137.918 104.501 137.897 104.857 137.922C105.216 137.946 105.573 137.985 105.926 138.042C106.388 138.116 106.761 138.18 107.046 138.233C107.335 138.284 107.554 138.292 107.703 138.256C107.855 138.222 107.958 138.114 108.011 137.933L108.022 137.895C108.162 137.424 108.141 137.021 107.961 136.684C107.784 136.348 107.436 136.103 106.918 135.95C106.381 135.791 105.925 135.784 105.55 135.929C105.175 136.074 104.887 136.262 104.684 136.492L103.729 135.795C104.051 135.406 104.408 135.135 104.799 134.981C105.194 134.825 105.596 134.754 106.003 134.767C106.414 134.778 106.804 134.838 107.173 134.947C107.408 135.017 107.67 135.125 107.958 135.273C108.25 135.418 108.514 135.619 108.75 135.875C108.988 136.132 109.151 136.462 109.239 136.865C109.328 137.268 109.286 137.76 109.114 138.342L107.686 143.166L106.561 142.833L106.855 141.842L106.797 141.825C106.674 141.961 106.497 142.094 106.265 142.222C106.034 142.351 105.751 142.435 105.418 142.475C105.085 142.514 104.705 142.471 104.279 142.345ZM104.75 141.385C105.195 141.517 105.596 141.54 105.953 141.456C106.313 141.372 106.611 141.215 106.849 140.985C107.09 140.755 107.255 140.488 107.345 140.183L107.65 139.153C107.585 139.196 107.465 139.218 107.289 139.217C107.117 139.215 106.921 139.2 106.701 139.173C106.485 139.144 106.274 139.112 106.07 139.08C105.869 139.044 105.706 139.017 105.581 138.997C105.277 138.949 104.986 138.93 104.706 138.941C104.43 138.949 104.19 139.014 103.984 139.137C103.783 139.257 103.64 139.46 103.555 139.746C103.44 140.137 103.497 140.475 103.727 140.761C103.961 141.044 104.302 141.253 104.75 141.385ZM115.091 137.393L114.809 138.347L111.014 137.224L111.296 136.271L115.091 137.393ZM112.921 134.844L114.046 135.176L111.981 142.156C111.887 142.474 111.863 142.726 111.908 142.912C111.957 143.096 112.047 143.236 112.177 143.334C112.312 143.429 112.461 143.501 112.627 143.55C112.751 143.586 112.854 143.61 112.937 143.621C113.022 143.628 113.089 143.634 113.139 143.639L113.069 144.717C112.984 144.723 112.87 144.721 112.724 144.709C112.578 144.7 112.4 144.665 112.191 144.603C111.873 144.509 111.582 144.348 111.317 144.121C111.055 143.895 110.866 143.613 110.748 143.274C110.634 142.936 110.64 142.554 110.766 142.128L112.921 134.844ZM114.617 145.217L116.783 137.894L117.908 138.227L115.742 145.55L114.617 145.217ZM117.716 136.843C117.497 136.778 117.33 136.647 117.215 136.451C117.104 136.256 117.079 136.053 117.141 135.843C117.203 135.633 117.334 135.477 117.534 135.374C117.737 135.271 117.948 135.252 118.168 135.317C118.387 135.382 118.552 135.512 118.664 135.708C118.779 135.904 118.805 136.107 118.743 136.317C118.681 136.527 118.548 136.683 118.345 136.785C118.145 136.889 117.936 136.908 117.716 136.843ZM120.231 142.087L118.928 146.492L117.803 146.159L119.969 138.837L121.056 139.158L120.717 140.302L120.813 140.331C121.094 140.009 121.443 139.788 121.86 139.666C122.277 139.54 122.762 139.559 123.315 139.723C123.811 139.87 124.215 140.1 124.527 140.413C124.839 140.723 125.038 141.114 125.123 141.585C125.21 142.053 125.161 142.598 124.976 143.221L123.6 147.874L122.475 147.541L123.829 142.965C123.999 142.39 123.982 141.897 123.778 141.488C123.575 141.075 123.213 140.792 122.692 140.638C122.333 140.531 121.989 140.514 121.66 140.586C121.334 140.659 121.046 140.821 120.796 141.072C120.545 141.323 120.357 141.661 120.231 142.087ZM127.754 152.256C127.21 152.095 126.764 151.887 126.414 151.631C126.064 151.379 125.792 151.101 125.598 150.798C125.406 150.5 125.272 150.201 125.194 149.901L126.277 149.537C126.339 149.701 126.423 149.892 126.528 150.109C126.632 150.33 126.8 150.544 127.032 150.751C127.267 150.962 127.605 151.133 128.047 151.264C128.638 151.439 129.169 151.44 129.638 151.268C130.107 151.096 130.432 150.704 130.612 150.094L131.052 148.607L130.957 148.579C130.835 148.688 130.668 148.818 130.458 148.97C130.251 149.12 129.983 149.229 129.655 149.298C129.332 149.364 128.931 149.327 128.455 149.186C127.863 149.011 127.374 148.714 126.986 148.296C126.602 147.878 126.352 147.361 126.237 146.746C126.124 146.133 126.181 145.444 126.407 144.682C126.629 143.931 126.954 143.317 127.382 142.839C127.811 142.358 128.306 142.034 128.867 141.868C129.429 141.699 130.018 141.706 130.634 141.888C131.111 142.029 131.466 142.221 131.698 142.462C131.935 142.702 132.099 142.944 132.189 143.188C132.283 143.43 132.353 143.627 132.398 143.779L132.512 143.813L132.856 142.649L133.943 142.971L131.715 150.503C131.529 151.133 131.234 151.602 130.832 151.911C130.431 152.225 129.964 152.403 129.429 152.445C128.897 152.492 128.339 152.429 127.754 152.256ZM128.906 148.221C129.357 148.354 129.769 148.364 130.142 148.249C130.515 148.135 130.839 147.908 131.116 147.568C131.393 147.228 131.611 146.788 131.771 146.248C131.927 145.72 131.985 145.231 131.946 144.78C131.906 144.33 131.765 143.944 131.521 143.623C131.277 143.302 130.926 143.074 130.469 142.938C129.992 142.797 129.559 142.801 129.17 142.948C128.784 143.097 128.451 143.351 128.172 143.71C127.896 144.071 127.684 144.5 127.538 144.995C127.387 145.504 127.334 145.977 127.377 146.415C127.424 146.851 127.572 147.226 127.821 147.542C128.074 147.855 128.436 148.081 128.906 148.221Z" fill="#AFAFBE"/>
<path d="M257.527 151.599L255.507 141.62L258.879 140.937C259.658 140.78 260.325 140.783 260.88 140.948C261.433 141.11 261.877 141.398 262.211 141.81C262.544 142.223 262.771 142.723 262.89 143.311C263.009 143.899 262.994 144.445 262.846 144.948C262.697 145.452 262.401 145.884 261.957 146.244C261.512 146.601 260.902 146.858 260.129 147.015L257.401 147.567L257.18 146.476L259.869 145.931C260.402 145.823 260.815 145.659 261.108 145.437C261.405 145.215 261.597 144.946 261.686 144.63C261.777 144.311 261.782 143.951 261.701 143.552C261.62 143.152 261.474 142.818 261.265 142.549C261.055 142.281 260.769 142.099 260.408 142.003C260.047 141.903 259.596 141.908 259.057 142.017L256.932 142.447L258.735 151.355L257.527 151.599ZM261.317 146.166L264.68 150.152L263.277 150.436L259.952 146.442L261.317 146.166ZM269.237 149.391C268.516 149.537 267.862 149.504 267.274 149.292C266.689 149.075 266.198 148.708 265.799 148.19C265.402 147.669 265.126 147.024 264.971 146.258C264.816 145.491 264.819 144.787 264.98 144.146C265.143 143.501 265.444 142.963 265.881 142.533C266.321 142.099 266.878 141.814 267.554 141.677C267.944 141.598 268.342 141.585 268.748 141.638C269.155 141.691 269.543 141.832 269.914 142.062C270.285 142.288 270.611 142.621 270.893 143.061C271.175 143.501 271.386 144.07 271.528 144.768L271.626 145.256L265.857 146.423L265.656 145.429L270.255 144.498C270.17 144.076 270.009 143.716 269.773 143.419C269.541 143.121 269.25 142.908 268.903 142.779C268.559 142.649 268.179 142.626 267.763 142.71C267.305 142.803 266.932 142.997 266.643 143.292C266.357 143.583 266.161 143.927 266.056 144.324C265.95 144.721 265.939 145.125 266.022 145.538L266.157 146.2C266.271 146.766 266.465 147.225 266.74 147.579C267.017 147.928 267.352 148.17 267.744 148.304C268.136 148.434 268.564 148.452 269.028 148.358C269.33 148.297 269.595 148.2 269.821 148.066C270.05 147.928 270.237 147.755 270.381 147.547C270.524 147.335 270.618 147.09 270.663 146.81L271.837 146.897C271.796 147.298 271.667 147.669 271.448 148.01C271.229 148.349 270.933 148.639 270.559 148.88C270.185 149.118 269.744 149.289 269.237 149.391ZM276.292 147.984C275.818 148.08 275.369 148.077 274.947 147.977C274.523 147.873 274.163 147.674 273.867 147.379C273.57 147.081 273.372 146.688 273.273 146.201C273.186 145.772 273.201 145.407 273.316 145.106C273.43 144.803 273.613 144.546 273.865 144.336C274.116 144.126 274.405 143.949 274.731 143.805C275.06 143.658 275.393 143.526 275.732 143.41C276.175 143.26 276.534 143.141 276.811 143.055C277.09 142.964 277.287 142.869 277.402 142.768C277.52 142.666 277.561 142.523 277.523 142.337L277.515 142.298C277.418 141.818 277.211 141.471 276.894 141.258C276.58 141.044 276.158 140.99 275.629 141.098C275.08 141.209 274.674 141.416 274.41 141.72C274.147 142.023 273.98 142.324 273.908 142.623L272.738 142.454C272.841 141.96 273.029 141.553 273.303 141.234C273.579 140.911 273.9 140.66 274.266 140.481C274.635 140.298 275.008 140.168 275.385 140.092C275.625 140.043 275.907 140.017 276.231 140.012C276.557 140.003 276.884 140.057 277.212 140.174C277.543 140.289 277.842 140.504 278.108 140.819C278.375 141.134 278.568 141.588 278.689 142.183L279.687 147.114L278.537 147.347L278.332 146.333L278.273 146.345C278.228 146.523 278.134 146.723 277.989 146.945C277.845 147.167 277.635 147.374 277.359 147.565C277.083 147.756 276.727 147.895 276.292 147.984ZM276.258 146.915C276.713 146.823 277.078 146.656 277.354 146.414C277.633 146.172 277.824 145.893 277.925 145.578C278.031 145.263 278.052 144.949 277.989 144.637L277.776 143.585C277.739 143.653 277.642 143.728 277.487 143.811C277.333 143.889 277.153 143.968 276.946 144.047C276.741 144.122 276.541 144.193 276.345 144.26C276.151 144.323 275.994 144.375 275.874 144.416C275.583 144.516 275.317 144.635 275.075 144.776C274.835 144.912 274.653 145.083 274.529 145.287C274.407 145.487 274.376 145.734 274.435 146.026C274.516 146.426 274.725 146.698 275.062 146.843C275.402 146.984 275.8 147.008 276.258 146.915ZM284.644 146.273C284.02 146.399 283.437 146.353 282.896 146.134C282.354 145.913 281.89 145.54 281.503 145.016C281.116 144.49 280.842 143.83 280.682 143.037C280.522 142.251 280.519 141.542 280.672 140.909C280.824 140.276 281.109 139.753 281.526 139.341C281.943 138.928 282.467 138.658 283.097 138.531C283.584 138.432 283.986 138.436 284.301 138.541C284.619 138.642 284.874 138.78 285.064 138.954C285.258 139.125 285.41 139.267 285.521 139.379L285.618 139.36L284.873 135.676L286.023 135.443L288.043 145.422L286.932 145.647L286.699 144.497L286.562 144.525C286.506 144.679 286.42 144.875 286.306 145.114C286.192 145.351 286.006 145.579 285.75 145.8C285.493 146.018 285.124 146.175 284.644 146.273ZM284.591 145.208C285.052 145.115 285.417 144.916 285.687 144.611C285.956 144.303 286.13 143.918 286.209 143.455C286.287 142.99 286.269 142.474 286.155 141.909C286.041 141.35 285.861 140.878 285.614 140.492C285.366 140.102 285.059 139.823 284.694 139.653C284.327 139.481 283.91 139.442 283.442 139.536C282.955 139.635 282.574 139.842 282.3 140.158C282.029 140.47 281.855 140.855 281.778 141.314C281.705 141.768 281.721 142.259 281.828 142.785C281.935 143.318 282.115 143.785 282.365 144.188C282.618 144.586 282.932 144.881 283.305 145.073C283.681 145.26 284.11 145.306 284.591 145.208ZM290.308 144.964L288.793 137.479L289.943 137.246L291.458 144.731L290.308 144.964ZM289.126 136.113C288.901 136.159 288.693 136.122 288.499 136.002C288.309 135.881 288.193 135.714 288.149 135.5C288.106 135.285 288.148 135.085 288.276 134.901C288.408 134.715 288.586 134.6 288.81 134.554C289.034 134.509 289.241 134.546 289.431 134.667C289.625 134.787 289.743 134.954 289.786 135.168C289.83 135.383 289.786 135.582 289.654 135.768C289.526 135.953 289.35 136.068 289.126 136.113ZM293.803 139.569L294.715 144.072L293.565 144.305L292.05 136.82L293.161 136.595L293.397 137.765L293.495 137.745C293.593 137.329 293.798 136.97 294.108 136.667C294.418 136.361 294.856 136.151 295.421 136.036C295.928 135.934 296.393 135.948 296.815 136.079C297.236 136.206 297.595 136.458 297.891 136.835C298.186 137.208 298.398 137.713 298.527 138.349L299.49 143.105L298.34 143.338L297.393 138.66C297.274 138.072 297.029 137.645 296.657 137.379C296.284 137.109 295.832 137.028 295.299 137.136C294.932 137.211 294.62 137.357 294.363 137.574C294.109 137.791 293.931 138.069 293.827 138.408C293.723 138.747 293.715 139.134 293.803 139.569ZM305.212 145.031C304.657 145.143 304.165 145.169 303.736 145.107C303.308 145.048 302.938 144.93 302.625 144.753C302.316 144.579 302.057 144.378 301.848 144.15L302.634 143.321C302.766 143.436 302.929 143.566 303.123 143.709C303.319 143.855 303.568 143.966 303.87 144.04C304.176 144.116 304.555 144.109 305.007 144.017C305.611 143.895 306.08 143.648 306.414 143.276C306.748 142.904 306.852 142.406 306.726 141.783L306.418 140.262L306.32 140.282C306.264 140.436 306.178 140.629 306.062 140.862C305.95 141.091 305.765 141.313 305.507 141.527C305.252 141.738 304.881 141.892 304.394 141.991C303.79 142.113 303.218 142.08 302.68 141.892C302.144 141.702 301.682 141.363 301.292 140.874C300.905 140.384 300.633 139.749 300.475 138.97C300.32 138.203 300.32 137.508 300.474 136.885C300.628 136.259 300.914 135.741 301.331 135.332C301.748 134.919 302.272 134.649 302.902 134.522C303.39 134.423 303.793 134.426 304.111 134.531C304.433 134.631 304.69 134.769 304.884 134.942C305.081 135.112 305.235 135.254 305.346 135.366L305.463 135.343L305.222 134.154L306.333 133.929L307.891 141.628C308.022 142.271 307.981 142.824 307.77 143.286C307.563 143.75 307.234 144.126 306.781 144.414C306.333 144.704 305.81 144.91 305.212 145.031ZM304.341 140.926C304.802 140.833 305.17 140.648 305.446 140.373C305.722 140.097 305.902 139.745 305.988 139.315C306.073 138.885 306.06 138.394 305.948 137.842C305.839 137.302 305.661 136.843 305.415 136.463C305.17 136.083 304.864 135.809 304.498 135.639C304.132 135.47 303.716 135.433 303.248 135.527C302.761 135.626 302.379 135.832 302.105 136.144C301.833 136.456 301.658 136.837 301.58 137.285C301.505 137.733 301.519 138.211 301.621 138.717C301.726 139.237 301.901 139.68 302.144 140.047C302.39 140.41 302.697 140.672 303.064 140.835C303.434 140.993 303.86 141.024 304.341 140.926Z" fill="#AFAFBE"/>
<path d="M312.94 327.856L307.32 318.92L308.519 318.557L312.962 325.875L313.057 325.846L312.725 317.281L314.057 316.877L318.538 324.183L318.633 324.155L318.262 315.601L319.461 315.238L319.752 325.789L318.534 326.159L314.029 319.047L313.953 319.07L314.158 327.486L312.94 327.856ZM326.069 324.039C325.409 324.24 324.783 324.258 324.19 324.095C323.6 323.931 323.079 323.609 322.629 323.129C322.182 322.649 321.844 322.031 321.615 321.276C321.384 320.515 321.32 319.808 321.424 319.157C321.531 318.505 321.784 317.946 322.184 317.482C322.586 317.017 323.118 316.685 323.777 316.484C324.437 316.284 325.062 316.266 325.652 316.43C326.245 316.593 326.766 316.917 327.214 317.401C327.665 317.884 328.006 318.506 328.237 319.267C328.466 320.022 328.527 320.724 328.419 321.373C328.314 322.022 328.061 322.578 327.658 323.043C327.258 323.507 326.729 323.839 326.069 324.039ZM325.763 323.031C326.264 322.879 326.638 322.625 326.883 322.27C327.129 321.915 327.266 321.505 327.294 321.039C327.323 320.573 327.263 320.096 327.115 319.608C326.966 319.119 326.751 318.688 326.467 318.313C326.184 317.938 325.841 317.67 325.439 317.508C325.036 317.346 324.584 317.341 324.083 317.493C323.582 317.645 323.209 317.9 322.965 318.258C322.72 318.617 322.584 319.03 322.557 319.499C322.529 319.968 322.589 320.447 322.738 320.935C322.886 321.424 323.101 321.854 323.383 322.225C323.666 322.597 324.008 322.862 324.409 323.021C324.811 323.18 325.262 323.183 325.763 323.031ZM331.048 322.363L328.831 315.055L329.916 314.726L330.251 315.83L330.327 315.807C330.351 315.405 330.503 315.039 330.783 314.708C331.064 314.377 331.423 314.145 331.861 314.012C331.943 313.987 332.047 313.957 332.171 313.923C332.296 313.888 332.391 313.865 332.456 313.852L332.803 314.994C332.762 314.996 332.67 315.008 332.528 315.03C332.388 315.049 332.244 315.08 332.095 315.125C331.739 315.233 331.445 315.404 331.211 315.638C330.979 315.867 330.822 316.137 330.739 316.446C330.658 316.751 330.668 317.068 330.768 317.398L332.171 322.022L331.048 322.363ZM336.271 317.869L335.831 316.486L336.059 316.417L338.269 312.193L339.658 311.771L337.297 316.249L337.202 316.278L336.271 317.869ZM336.033 320.851L333.077 311.108L334.2 310.767L337.155 320.51L336.033 320.851ZM340.676 319.443L336.725 316.693L337.287 315.67L342.103 319.01L340.676 319.443ZM343.32 318.641L341.104 311.333L342.226 310.992L344.443 318.3L343.32 318.641ZM341.305 309.942C341.086 310.008 340.875 309.991 340.671 309.89C340.47 309.788 340.338 309.632 340.275 309.423C340.211 309.214 340.235 309.011 340.345 308.815C340.458 308.618 340.624 308.486 340.843 308.419C341.062 308.353 341.272 308.371 341.472 308.473C341.676 308.574 341.81 308.729 341.873 308.938C341.937 309.148 341.912 309.351 341.799 309.548C341.688 309.744 341.524 309.876 341.305 309.942ZM346.289 312.94L347.622 317.336L346.499 317.676L344.283 310.369L345.367 310.04L345.714 311.181L345.809 311.153C345.868 310.73 346.037 310.353 346.318 310.022C346.598 309.687 347.013 309.437 347.565 309.269C348.06 309.119 348.524 309.089 348.956 309.18C349.388 309.267 349.769 309.484 350.099 309.83C350.429 310.174 350.688 310.656 350.876 311.278L352.285 315.921L351.162 316.262L349.776 311.695C349.602 311.121 349.318 310.719 348.922 310.489C348.526 310.256 348.068 310.218 347.548 310.376C347.189 310.485 346.892 310.659 346.657 310.9C346.425 311.141 346.274 311.434 346.202 311.781C346.131 312.129 346.16 312.515 346.289 312.94ZM358.163 317.297C357.621 317.462 357.133 317.533 356.701 317.512C356.27 317.494 355.89 317.412 355.561 317.265C355.237 317.121 354.96 316.946 354.731 316.738L355.435 315.839C355.577 315.941 355.752 316.054 355.959 316.179C356.167 316.306 356.425 316.392 356.733 316.437C357.046 316.484 357.422 316.441 357.863 316.307C358.453 316.129 358.897 315.838 359.194 315.436C359.491 315.034 359.547 314.529 359.363 313.92L358.912 312.436L358.817 312.465C358.775 312.623 358.708 312.823 358.615 313.066C358.525 313.305 358.362 313.543 358.125 313.781C357.892 314.015 357.537 314.204 357.061 314.348C356.471 314.527 355.899 314.548 355.345 314.411C354.794 314.274 354.301 313.98 353.867 313.53C353.436 313.079 353.105 312.472 352.874 311.711C352.647 310.963 352.581 310.271 352.676 309.636C352.77 308.998 353.005 308.456 353.382 308.009C353.758 307.559 354.254 307.24 354.869 307.054C355.345 306.909 355.746 306.874 356.074 306.948C356.403 307.018 356.673 307.13 356.882 307.285C357.094 307.435 357.261 307.561 357.382 307.663L357.496 307.629L357.144 306.468L358.228 306.139L360.508 313.656C360.699 314.284 360.711 314.838 360.545 315.317C360.383 315.799 360.09 316.205 359.667 316.534C359.248 316.866 358.747 317.12 358.163 317.297ZM356.907 313.293C357.358 313.157 357.707 312.938 357.955 312.638C358.204 312.337 358.35 311.969 358.394 311.533C358.439 311.097 358.379 310.609 358.216 310.07C358.056 309.544 357.836 309.103 357.555 308.748C357.274 308.394 356.944 308.149 356.564 308.015C356.183 307.881 355.765 307.883 355.308 308.022C354.833 308.166 354.473 308.407 354.229 308.744C353.988 309.081 353.85 309.476 353.814 309.93C353.782 310.383 353.841 310.857 353.991 311.352C354.145 311.859 354.36 312.284 354.637 312.626C354.916 312.964 355.246 313.196 355.628 313.323C356.011 313.445 356.438 313.436 356.907 313.293ZM369.283 310.932C368.623 311.132 367.997 311.15 367.404 310.987C366.814 310.824 366.293 310.502 365.843 310.022C365.396 309.541 365.058 308.923 364.829 308.168C364.598 307.407 364.534 306.701 364.638 306.049C364.745 305.397 364.998 304.839 365.398 304.374C365.8 303.909 366.332 303.577 366.991 303.377C367.651 303.177 368.276 303.159 368.866 303.322C369.459 303.485 369.98 303.809 370.428 304.293C370.879 304.776 371.22 305.398 371.451 306.159C371.68 306.914 371.741 307.616 371.633 308.265C371.528 308.914 371.275 309.47 370.872 309.935C370.472 310.4 369.943 310.732 369.283 310.932ZM368.977 309.923C369.478 309.771 369.852 309.518 370.097 309.163C370.343 308.808 370.48 308.397 370.508 307.931C370.537 307.465 370.477 306.988 370.329 306.5C370.18 306.011 369.965 305.58 369.681 305.205C369.398 304.831 369.055 304.562 368.653 304.4C368.25 304.238 367.798 304.233 367.297 304.385C366.796 304.537 366.423 304.792 366.179 305.151C365.934 305.509 365.798 305.922 365.771 306.391C365.743 306.86 365.803 307.339 365.952 307.828C366.1 308.316 366.315 308.746 366.597 309.117C366.88 309.489 367.222 309.754 367.623 309.913C368.025 310.072 368.476 310.075 368.977 309.923ZM377.961 304.871L376.651 300.551L377.774 300.21L379.99 307.518L378.867 307.858L378.492 306.621L378.416 306.644C378.357 307.068 378.187 307.464 377.904 307.834C377.62 308.2 377.202 308.467 376.651 308.635C376.194 308.773 375.758 308.796 375.342 308.704C374.925 308.609 374.553 308.389 374.227 308.045C373.9 307.697 373.642 307.213 373.454 306.591L372.045 301.948L373.168 301.607L374.554 306.174C374.715 306.707 374.993 307.087 375.388 307.314C375.785 307.539 376.217 307.582 376.683 307.44C376.962 307.356 377.224 307.198 377.47 306.968C377.718 306.737 377.896 306.444 378.003 306.089C378.114 305.733 378.1 305.327 377.961 304.871ZM383.008 298.622L383.297 299.574L379.51 300.723L379.221 299.771L383.008 298.622ZM379.794 297.686L380.916 297.345L383.029 304.31C383.125 304.627 383.243 304.851 383.384 304.982C383.526 305.108 383.678 305.176 383.84 305.186C384.005 305.192 384.17 305.169 384.334 305.119C384.458 305.082 384.558 305.045 384.633 305.008C384.708 304.968 384.767 304.936 384.812 304.912L385.346 305.852C385.279 305.903 385.181 305.964 385.053 306.034C384.927 306.107 384.759 306.175 384.549 306.239C384.232 306.335 383.901 306.361 383.555 306.317C383.212 306.272 382.899 306.14 382.614 305.922C382.333 305.702 382.128 305.38 381.999 304.955L379.794 297.686Z" fill="#AFAFBE"/>
<rect x="175.398" y="226" width="68.841" height="68.841" rx="3.22917" transform="rotate(18.1094 175.398 226)" fill="#27272A"/>
<path d="M193.132 269.067L203.14 259.028L203.172 258.93L196.12 256.624L196.827 254.462L206.558 257.644L205.835 259.855L195.818 269.945L193.132 269.067Z" fill="#10B981"/>
<path d="M184.16 282.037C183.714 281.891 183.357 281.649 183.089 281.312C182.821 280.972 182.659 280.564 182.601 280.087C182.544 279.608 182.609 279.084 182.794 278.517C182.978 277.954 183.235 277.498 183.563 277.147C183.891 276.796 184.264 276.564 184.682 276.451C185.1 276.338 185.535 276.355 185.986 276.503C186.334 276.617 186.591 276.765 186.755 276.948C186.923 277.128 187.036 277.31 187.095 277.491C187.157 277.671 187.203 277.817 187.233 277.93L187.303 277.953L188.165 275.316L188.988 275.585L186.652 282.728L185.857 282.468L186.126 281.645L186.029 281.613C185.936 281.691 185.81 281.786 185.65 281.898C185.49 282.008 185.288 282.088 185.043 282.136C184.799 282.183 184.505 282.149 184.16 282.037ZM184.514 281.334C184.844 281.442 185.151 281.447 185.435 281.35C185.72 281.25 185.972 281.066 186.191 280.798C186.411 280.527 186.587 280.19 186.719 279.785C186.85 279.385 186.906 279.016 186.888 278.678C186.871 278.338 186.775 278.047 186.602 277.805C186.43 277.561 186.176 277.384 185.841 277.274C185.493 277.16 185.173 277.155 184.882 277.258C184.594 277.359 184.342 277.543 184.126 277.81C183.913 278.075 183.745 278.396 183.622 278.772C183.497 279.154 183.442 279.519 183.456 279.869C183.474 280.217 183.568 280.52 183.738 280.779C183.911 281.036 184.17 281.221 184.514 281.334ZM189.809 283.9C189.47 283.789 189.183 283.624 188.948 283.406C188.714 283.185 188.555 282.926 188.472 282.629C188.39 282.329 188.406 282.005 188.52 281.656C188.621 281.349 188.762 281.12 188.946 280.969C189.13 280.815 189.341 280.717 189.579 280.674C189.817 280.631 190.067 280.622 190.328 280.649C190.593 280.674 190.855 280.71 191.115 280.759C191.454 280.824 191.728 280.879 191.937 280.924C192.149 280.968 192.311 280.978 192.421 280.955C192.534 280.933 192.612 280.855 192.655 280.723L192.664 280.695C192.777 280.351 192.77 280.052 192.644 279.8C192.521 279.549 192.269 279.361 191.89 279.237C191.497 279.108 191.161 279.094 190.882 279.193C190.602 279.292 190.385 279.424 190.231 279.59L189.541 279.055C189.787 278.775 190.055 278.583 190.347 278.478C190.642 278.371 190.94 278.326 191.24 278.345C191.543 278.362 191.83 278.414 192.1 278.502C192.272 278.559 192.463 278.644 192.672 278.759C192.885 278.872 193.075 279.026 193.243 279.22C193.414 279.415 193.527 279.662 193.584 279.961C193.641 280.26 193.599 280.622 193.46 281.048L192.306 284.577L191.483 284.308L191.72 283.583L191.678 283.569C191.584 283.667 191.451 283.761 191.277 283.851C191.104 283.941 190.893 283.997 190.647 284.019C190.4 284.041 190.121 284.002 189.809 283.9ZM190.177 283.201C190.502 283.308 190.798 283.334 191.063 283.279C191.33 283.225 191.554 283.115 191.734 282.95C191.916 282.786 192.044 282.592 192.117 282.369L192.363 281.615C192.315 281.646 192.226 281.659 192.096 281.655C191.969 281.65 191.824 281.635 191.662 281.61C191.504 281.584 191.349 281.557 191.199 281.528C191.052 281.498 190.932 281.474 190.84 281.457C190.617 281.415 190.402 281.395 190.196 281.397C189.992 281.397 189.813 281.44 189.659 281.526C189.508 281.611 189.398 281.758 189.33 281.967C189.236 282.253 189.271 282.504 189.435 282.719C189.602 282.934 189.849 283.094 190.177 283.201ZM193.49 287.188C193.35 287.142 193.229 287.09 193.128 287.031C193.025 286.974 192.957 286.929 192.922 286.894L193.368 286.237C193.551 286.354 193.722 286.43 193.88 286.466C194.038 286.503 194.196 286.478 194.355 286.394C194.516 286.313 194.691 286.152 194.879 285.913L195.17 285.545L194.95 279.512L195.843 279.804L195.925 284.556L195.981 284.575L198.856 280.789L199.749 281.081L195.468 286.476C195.275 286.719 195.073 286.907 194.863 287.039C194.651 287.173 194.431 287.252 194.203 287.275C193.976 287.298 193.738 287.269 193.49 287.188ZM204.238 283.877L203.43 283.845C203.424 283.706 203.394 283.564 203.342 283.418C203.292 283.271 203.203 283.133 203.075 283.007C202.946 282.88 202.762 282.777 202.523 282.699C202.195 282.591 201.897 282.578 201.629 282.657C201.364 282.735 201.194 282.89 201.119 283.12C201.052 283.324 201.073 283.51 201.184 283.678C201.294 283.845 201.494 284.02 201.784 284.202L202.515 284.658C202.956 284.93 203.255 285.225 203.412 285.541C203.569 285.855 203.586 286.199 203.464 286.574C203.364 286.881 203.185 287.126 202.93 287.31C202.676 287.495 202.37 287.606 202.01 287.643C201.651 287.68 201.263 287.63 200.847 287.494C200.3 287.315 199.887 287.049 199.606 286.694C199.326 286.34 199.212 285.919 199.266 285.433L200.111 285.493C200.091 285.805 200.161 286.068 200.321 286.279C200.483 286.492 200.733 286.654 201.07 286.764C201.454 286.889 201.785 286.907 202.064 286.818C202.345 286.728 202.524 286.568 202.599 286.337C202.66 286.151 202.646 285.974 202.557 285.806C202.468 285.636 202.3 285.475 202.05 285.324L201.226 284.823C200.773 284.546 200.472 284.248 200.322 283.928C200.174 283.607 200.161 283.262 200.282 282.892C200.381 282.59 200.553 282.351 200.799 282.174C201.047 281.997 201.34 281.891 201.679 281.855C202.02 281.82 202.379 281.864 202.756 281.987C203.286 282.161 203.664 282.413 203.89 282.744C204.119 283.076 204.235 283.454 204.238 283.877Z" fill="#A1A1AA"/>
<rect x="175.712" y="140" width="35.5308" height="35.5308" rx="5" transform="rotate(22.7014 175.712 140)" fill="#10B981"/>
<path d="M180.113 161.911L181.991 166.49L191.343 162.273" stroke="#073F2C" stroke-width="2" stroke-linecap="round" stroke-linejoin="round"/>
<rect x="365.554" y="172.641" width="35.5308" height="35.5308" rx="5" transform="rotate(-6.60452 365.554 172.641)" fill="#10B981"/>
<path d="M380.116 189.595L383.996 192.669L390.087 184.413" stroke="#073F2C" stroke-width="2" stroke-linecap="round" stroke-linejoin="round"/>
<rect x="49" y="287.535" width="35.5308" height="35.5308" rx="5" transform="rotate(-17.248 49 287.535)" fill="#10B981"/>
<path d="M66.4426 301.508L70.823 303.812L75.2844 294.574" stroke="#073F2C" stroke-width="2" stroke-linecap="round" stroke-linejoin="round"/>
<rect x="-3" y="180" width="431" height="166" fill="url(#paint0_linear_1305_315)"/>
<rect x="9.17181" y="0.449168" width="68.1952" height="68.1952" rx="2.90625" transform="rotate(34.5983 9.17181 0.449168)" stroke="white" stroke-opacity="0.05" stroke-width="0.645833"/>
<path d="M11.5195 44.9567C10.6496 44.3566 9.97911 43.6742 9.50808 42.9094C9.04109 42.1474 8.79562 41.3659 8.77168 40.5648C8.74773 39.7637 8.96399 39.0064 9.42045 38.293L11.6919 39.8599C11.4815 40.2081 11.3908 40.5764 11.4199 40.9651C11.4518 41.3496 11.5877 41.7257 11.8275 42.0932C12.0673 42.4607 12.3946 42.7876 12.8095 43.0737C13.2525 43.3793 13.6979 43.5737 14.1458 43.6568C14.5965 43.7358 15.0144 43.7031 15.3994 43.5586C15.7844 43.414 16.0999 43.1591 16.3459 42.7939C16.6083 42.4221 16.7395 42.0252 16.7394 41.6031C16.7393 41.181 16.6075 40.7603 16.3441 40.3408C16.0847 39.9241 15.6932 39.5352 15.1696 39.174L14.0762 38.4198L15.268 36.692L16.3615 37.4463C16.7924 37.7435 17.2204 37.9288 17.6453 38.002C18.0744 38.078 18.4746 38.045 18.846 37.903C19.2201 37.7569 19.5288 37.5033 19.7721 37.142C20.0178 36.7944 20.149 36.4362 20.1657 36.0673C20.1892 35.6972 20.106 35.3396 19.916 34.9946C19.7301 34.6524 19.4438 34.3479 19.0572 34.0812C18.6786 33.82 18.281 33.6468 17.8644 33.5615C17.4477 33.4762 17.0532 33.4923 16.6808 33.6099C16.3112 33.7235 16.0009 33.9493 15.7499 34.2873L13.5933 32.7996C14.0872 32.118 14.7061 31.6474 15.4498 31.3877C16.2004 31.1268 16.9993 31.0716 17.8465 31.2221C18.6965 31.3686 19.5222 31.7183 20.3236 32.2711C21.1492 32.8407 21.7592 33.4902 22.1534 34.2198C22.5544 34.9482 22.7429 35.6874 22.7188 36.4376C22.6947 37.1877 22.4659 37.8769 22.0325 38.5052C21.5559 39.2047 20.9477 39.647 20.2078 39.832C19.472 40.0199 18.7198 39.9557 17.9512 39.6395L17.8845 39.7362C18.6711 40.4571 19.1154 41.2391 19.2174 42.0821C19.3262 42.9239 19.1119 43.7301 18.5744 44.5005C18.0966 45.1933 17.4714 45.6774 16.6989 45.9528C15.9332 46.227 15.099 46.2817 14.1964 46.1167C13.2978 45.9545 12.4055 45.5679 11.5195 44.9567ZM22.6875 52.7586C21.6927 52.0724 21.0126 51.2317 20.647 50.2365C20.2882 49.2401 20.2467 48.1327 20.5225 46.9143C20.8052 45.6946 21.4118 44.4102 22.3425 43.061C23.2772 41.7146 24.2603 40.6987 25.2917 40.0134C26.33 39.3269 27.3758 38.9784 28.4291 38.9679C29.4864 38.9603 30.5105 39.2981 31.5012 39.9816C32.492 40.665 33.1715 41.5023 33.5399 42.4934C33.9082 43.4845 33.9539 44.5859 33.6768 45.7975C33.4038 47.0119 32.8033 48.2917 31.8754 49.6369C30.9419 50.9901 29.9533 52.014 28.9095 52.7086C27.8725 53.4019 26.8239 53.7545 25.7638 53.7662C24.7077 53.7806 23.6823 53.4448 22.6875 52.7586ZM23.9919 50.8677C24.7651 51.4011 25.6378 51.4414 26.6099 50.9886C27.5888 50.5345 28.5909 49.5644 29.616 48.0783C30.2939 47.0956 30.7607 46.1992 31.0165 45.3889C31.2723 44.5787 31.3296 43.8752 31.1884 43.2786C31.05 42.6779 30.725 42.2011 30.2135 41.8483C29.4443 41.3176 28.5722 41.2808 27.5973 41.7376C26.6252 42.1904 25.6288 43.1524 24.6079 44.6237C23.9232 45.6076 23.4496 46.5053 23.187 47.3168C22.9285 48.1311 22.8684 48.8386 23.0068 49.4393C23.148 50.0359 23.4763 50.5121 23.9919 50.8677Z" fill="#52525B"/>
<path d="M1.58636 56.2208C1.19973 55.9541 0.925772 55.621 0.764497 55.2214C0.604612 54.8199 0.564728 54.3823 0.644846 53.9085C0.726354 53.4328 0.936575 52.9492 1.27551 52.4579C1.61167 51.9706 1.98694 51.6053 2.40134 51.3622C2.81573 51.119 3.23931 51.0026 3.67208 51.0128C4.10485 51.0231 4.51657 51.163 4.90723 51.4325C5.20928 51.6408 5.41318 51.8558 5.51892 52.0773C5.62806 52.2982 5.68519 52.504 5.69031 52.6948C5.69883 52.8849 5.70149 53.0383 5.69828 53.155L5.75869 53.1967L7.33391 50.9131L8.04676 51.4049L3.77951 57.591L3.09082 57.1159L3.58256 56.4031L3.49798 56.3447C3.38728 56.3932 3.23915 56.4485 3.0536 56.5107C2.86943 56.5709 2.653 56.5895 2.40433 56.5666C2.15704 56.5416 1.88439 56.4264 1.58636 56.2208ZM2.12474 55.6471C2.41069 55.8443 2.70373 55.9365 3.00387 55.9236C3.30539 55.9087 3.59918 55.8038 3.88524 55.6088C4.17269 55.4119 4.43726 55.1382 4.67896 54.7878C4.91788 54.4414 5.0766 54.1036 5.1551 53.7744C5.235 53.4432 5.22628 53.137 5.12895 52.8559C5.03301 52.5728 4.84005 52.3312 4.55008 52.1312C4.24802 51.9228 3.94283 51.8267 3.6345 51.8428C3.32957 51.8584 3.03578 51.9633 2.75312 52.1576C2.47387 52.3513 2.22173 52.6113 1.9967 52.9375C1.76889 53.2678 1.61226 53.6026 1.52681 53.9418C1.44476 54.2805 1.44855 54.5981 1.53817 54.8947C1.63119 55.1907 1.82671 55.4415 2.12474 55.6471ZM6.47436 59.6104C6.18036 59.4076 5.95174 59.1682 5.78851 58.8921C5.62667 58.614 5.54819 58.3207 5.55308 58.012C5.55937 57.7013 5.66669 57.3949 5.87505 57.0929C6.05841 56.8271 6.2594 56.6477 6.47802 56.5548C6.69802 56.4599 6.92827 56.4256 7.16874 56.4518C7.40922 56.478 7.65116 56.5409 7.89455 56.6404C8.14134 56.7393 8.38219 56.849 8.6171 56.9694C8.92403 57.1276 9.17134 57.2581 9.35903 57.3609C9.55013 57.463 9.70193 57.5186 9.81442 57.5279C9.92893 57.5385 10.0258 57.4864 10.105 57.3717L10.1216 57.3475C10.3272 57.0495 10.4054 56.7616 10.3562 56.484C10.309 56.2077 10.1213 55.9564 9.79305 55.73C9.45273 55.4952 9.13452 55.3857 8.83841 55.4013C8.5423 55.417 8.29664 55.4823 8.10142 55.5973L7.59151 54.8889C7.9068 54.6904 8.21931 54.582 8.52903 54.5638C8.84215 54.545 9.14006 54.5871 9.42275 54.69C9.70885 54.7922 9.96869 54.9239 10.2023 55.085C10.3513 55.1878 10.51 55.324 10.6783 55.4936C10.85 55.6626 10.989 55.864 11.0952 56.0977C11.2034 56.3329 11.2422 56.6019 11.2117 56.9047C11.1811 57.2075 11.0387 57.5432 10.7845 57.9117L8.67585 60.9685L7.96299 60.4768L8.39639 59.8485L8.36014 59.8235C8.24236 59.8909 8.08749 59.943 7.89555 59.98C7.7036 60.017 7.48621 60.0112 7.24337 59.9626C7.00053 59.9139 6.7442 59.7965 6.47436 59.6104ZM7.02483 59.0451C7.30675 59.2395 7.58256 59.3481 7.85228 59.3707C8.12401 59.3946 8.36963 59.3531 8.58916 59.2459C8.81069 59.1402 8.98813 58.9907 9.12149 58.7974L9.57155 58.1449C9.51634 58.1603 9.42697 58.1477 9.30343 58.1071C9.1833 58.0658 9.04914 58.0104 8.90096 57.9409C8.75617 57.8707 8.6158 57.8007 8.47984 57.7306C8.34728 57.66 8.23927 57.6033 8.1558 57.5606C7.95387 57.457 7.7536 57.3768 7.555 57.32C7.3598 57.2627 7.17606 57.2533 7.00376 57.292C6.83487 57.33 6.68792 57.4396 6.5629 57.6209C6.39204 57.8685 6.35448 58.119 6.45022 58.3723C6.54936 58.6249 6.74089 58.8492 7.02483 59.0451ZM9.06979 63.808C8.94896 63.7247 8.84817 63.6403 8.76742 63.5549C8.68528 63.4714 8.63233 63.4082 8.60859 63.3651L9.22322 62.8618C9.36584 63.0256 9.50776 63.1472 9.649 63.2268C9.79024 63.3064 9.94902 63.3283 10.1253 63.2924C10.3023 63.2599 10.5153 63.1557 10.7644 62.9799L11.1474 62.7091L12.6488 56.8618L13.4221 57.3952L12.1524 61.9759L12.2008 62.0092L16.0318 59.1955L16.8051 59.7289L11.1685 63.6866C10.9146 63.8651 10.668 63.9877 10.4288 64.0545C10.1882 64.1233 9.95488 64.1362 9.72891 64.0933C9.50496 64.0517 9.28525 63.9566 9.06979 63.808ZM20.3156 63.684L19.5502 63.4235C19.5836 63.289 19.5957 63.1443 19.5866 62.9894C19.581 62.834 19.5346 62.6772 19.4475 62.519C19.3605 62.3609 19.2132 62.2103 19.0058 62.0672C18.7219 61.8714 18.4401 61.7736 18.1605 61.7739C17.8844 61.7736 17.6775 61.8731 17.54 62.0725C17.4178 62.2497 17.3856 62.4341 17.4437 62.6257C17.5017 62.8173 17.6441 63.0418 17.8707 63.2992L18.4427 63.9434C18.7881 64.3302 18.9909 64.6975 19.0512 65.0452C19.1129 65.3909 19.0319 65.7258 18.8083 66.05C18.6249 66.3159 18.3845 66.5007 18.087 66.6045C17.7915 66.7098 17.4662 66.7291 17.111 66.6624C16.7558 66.5957 16.3979 66.438 16.0375 66.1893C15.5643 65.8629 15.2435 65.49 15.075 65.0707C14.9066 64.6514 14.9172 64.2159 15.1069 63.7643L15.9002 64.0619C15.7924 64.356 15.7851 64.6273 15.8782 64.8758C15.9733 65.1257 16.1668 65.3513 16.4588 65.5527C16.7911 65.7819 17.1035 65.8934 17.396 65.8872C17.692 65.8803 17.9088 65.7772 18.0463 65.5779C18.1574 65.4168 18.1941 65.243 18.1563 65.0565C18.12 64.8679 18.0037 64.6659 17.8077 64.4504L17.1594 63.7357C16.804 63.342 16.5995 62.9706 16.546 62.6216C16.4959 62.272 16.5813 61.9372 16.8021 61.617C16.9827 61.3552 17.216 61.1743 17.5019 61.0744C17.7898 60.9758 18.1012 60.9573 18.4361 61.0189C18.7731 61.082 19.1046 61.226 19.4309 61.451C19.89 61.7677 20.181 62.1171 20.3039 62.499C20.4287 62.8823 20.4327 63.2773 20.3156 63.684Z" fill="#3F3F46"/>
<rect x="288.149" y="248.066" width="35.5308" height="35.5308" rx="5" transform="rotate(-42.3104 288.149 248.066)" fill="#10B981"/>
<g clip-path="url(#clip0_1305_315)">
<path d="M309.868 253.335L314.812 253.567L314.94 243.309" stroke="#073F2C" stroke-width="2" stroke-linecap="round" stroke-linejoin="round"/>
</g>
<rect x="345.424" y="56.2305" width="68.1952" height="68.1952" rx="2.90625" transform="rotate(-23.1475 345.424 56.2305)" stroke="white" stroke-opacity="0.05" stroke-width="0.645833"/>
<path d="M380.621 63.007L386.529 76.8273L384.026 77.8976L379.159 66.5134L379.078 66.548L376.728 69.9949L375.747 67.7005L378.239 64.0254L380.621 63.007ZM388.692 72.8696L387.841 70.8788L389.744 59.1065L391.405 58.3968L392.616 61.2311L391.604 61.6638L390.331 69.6071L390.377 69.7151L398.562 66.2156L399.442 68.2738L388.692 72.8696ZM396.382 72.6153L395.026 69.4436L394.672 68.5413L390.5 58.7834L392.862 57.7737L398.771 71.594L396.382 72.6153Z" fill="#52525B"/>
<path d="M388.54 92.4095C388.109 92.5941 387.681 92.648 387.257 92.5712C386.832 92.4921 386.44 92.2923 386.083 91.9717C385.724 91.6489 385.427 91.213 385.192 90.6642C384.96 90.1198 384.851 89.6075 384.867 89.1273C384.882 88.6471 385.01 88.2268 385.249 87.8662C385.489 87.5057 385.827 87.2322 386.263 87.0456C386.601 86.9014 386.891 86.8437 387.135 86.8725C387.38 86.8981 387.585 86.9596 387.749 87.0571C387.914 87.1513 388.045 87.2309 388.142 87.2959L388.21 87.2671L387.119 84.7163L387.915 84.3758L390.87 91.286L390.1 91.6149L389.76 90.8186L389.665 90.859C389.647 90.9784 389.615 91.1332 389.569 91.3234C389.521 91.5112 389.422 91.7042 389.269 91.9023C389.116 92.0981 388.873 92.2671 388.54 92.4095ZM388.343 91.648C388.662 91.5114 388.896 91.3128 389.046 91.0521C389.194 90.7892 389.262 90.4847 389.25 90.1387C389.237 89.7905 389.146 89.4207 388.979 89.0293C388.814 88.6424 388.613 88.3279 388.376 88.0859C388.139 87.8415 387.875 87.6855 387.585 87.6178C387.295 87.5478 386.987 87.5821 386.664 87.7205C386.326 87.8648 386.082 88.0716 385.931 88.341C385.782 88.6071 385.713 88.9116 385.727 89.2543C385.742 89.5939 385.827 89.9459 385.983 90.3103C386.141 90.6792 386.34 90.9903 386.581 91.2436C386.824 91.4937 387.095 91.66 387.393 91.7425C387.693 91.8218 388.01 91.7903 388.343 91.648ZM394.016 90.0847C393.687 90.2251 393.363 90.2907 393.042 90.2814C392.721 90.2698 392.431 90.1796 392.172 90.0108C391.913 89.8397 391.711 89.5854 391.567 89.248C391.44 88.9511 391.395 88.6854 391.434 88.4509C391.471 88.2142 391.565 88.0012 391.715 87.8118C391.866 87.6224 392.048 87.4513 392.262 87.2986C392.477 87.1427 392.699 86.9976 392.926 86.8632C393.223 86.688 393.466 86.5485 393.653 86.4446C393.841 86.3375 393.969 86.2388 394.037 86.1486C394.107 86.0575 394.115 85.9478 394.06 85.8196L394.048 85.7926C393.906 85.4597 393.704 85.2399 393.443 85.1334C393.185 85.0259 392.872 85.0505 392.505 85.2072C392.125 85.3697 391.863 85.5804 391.718 85.8392C391.573 86.0979 391.497 86.3406 391.49 86.567L390.619 86.6202C390.619 86.2476 390.694 85.9255 390.844 85.6538C390.996 85.379 391.19 85.1495 391.428 84.9653C391.667 84.778 391.917 84.6285 392.178 84.5169C392.345 84.4458 392.544 84.3843 392.778 84.3325C393.012 84.2774 393.257 84.2674 393.511 84.3023C393.768 84.3362 394.016 84.447 394.256 84.6344C394.495 84.8219 394.703 85.1215 394.879 85.5331L396.339 88.9477L395.543 89.2881L395.243 88.5863L395.202 88.6036C395.196 88.7392 395.158 88.898 395.087 89.0801C395.016 89.2621 394.895 89.4429 394.724 89.6223C394.553 89.8017 394.317 89.9558 394.016 90.0847ZM393.831 89.3174C394.146 89.1828 394.385 89.0075 394.548 88.7914C394.714 88.5745 394.809 88.3445 394.836 88.1017C394.865 87.8579 394.833 87.6281 394.741 87.4121L394.429 86.6833C394.413 86.7382 394.354 86.8071 394.254 86.8899C394.155 86.9695 394.037 87.0534 393.899 87.1416C393.762 87.2266 393.628 87.3079 393.496 87.3855C393.366 87.4599 393.26 87.521 393.18 87.5688C392.984 87.6843 392.809 87.8108 392.655 87.9485C392.503 88.0829 392.397 88.2333 392.337 88.3997C392.28 88.5628 392.294 88.7456 392.38 88.948C392.499 89.2247 392.69 89.3902 392.956 89.4444C393.222 89.4953 393.514 89.453 393.831 89.3174ZM398.951 90.1299C398.816 90.1876 398.691 90.2278 398.575 90.2505C398.461 90.2755 398.379 90.2865 398.33 90.2836L398.232 89.4952C398.447 89.462 398.626 89.4069 398.768 89.3299C398.911 89.253 399.014 89.1303 399.078 88.9621C399.145 88.7951 399.17 88.5593 399.155 88.2548L399.13 87.7865L394.986 83.3962L395.85 83.0269L399.046 86.5452L399.1 86.5221L398.765 81.7806L399.629 81.4113L399.968 88.2902C399.983 88.6002 399.956 88.8742 399.884 89.1122C399.814 89.3524 399.701 89.5566 399.544 89.7247C399.389 89.892 399.191 90.027 398.951 90.1299ZM404.847 80.5533L404.219 81.0615C404.123 80.9615 404.007 80.8741 403.871 80.7991C403.736 80.7209 403.579 80.6764 403.399 80.6657C403.219 80.6549 403.013 80.6991 402.781 80.7981C402.464 80.9337 402.231 81.1198 402.082 81.3564C401.934 81.5898 401.908 81.8179 402.003 82.0405C402.088 82.2385 402.227 82.364 402.42 82.4172C402.613 82.4704 402.879 82.4698 403.217 82.4155L404.067 82.2756C404.579 82.19 404.998 82.2144 405.324 82.349C405.649 82.4813 405.889 82.7285 406.044 83.0907C406.171 83.3876 406.199 83.6896 406.128 83.9966C406.059 84.3027 405.902 84.5881 405.656 84.8529C405.41 85.1177 405.086 85.3361 404.683 85.5083C404.154 85.7342 403.668 85.8066 403.223 85.7252C402.779 85.6439 402.416 85.4025 402.136 85.001L402.811 84.489C403.002 84.7371 403.227 84.8881 403.487 84.942C403.749 84.9949 404.043 84.9517 404.369 84.8122C404.741 84.6535 405.002 84.4488 405.152 84.1981C405.305 83.9441 405.333 83.7058 405.238 83.4831C405.161 83.3032 405.034 83.1794 404.856 83.1118C404.677 83.0419 404.444 83.0324 404.157 83.0832L403.207 83.25C402.684 83.3405 402.261 83.3152 401.937 83.1742C401.615 83.03 401.377 82.7791 401.224 82.4215C401.099 82.129 401.071 81.8353 401.139 81.5401C401.209 81.244 401.36 80.9708 401.591 80.7204C401.824 80.4691 402.122 80.2656 402.487 80.1098C403 79.8905 403.45 79.8309 403.839 79.9308C404.23 80.0298 404.566 80.2372 404.847 80.5533Z" fill="#3F3F46"/>
<rect x="27" y="170.873" width="35.5308" height="35.5308" rx="5" transform="rotate(-4.63727 27 170.873)" fill="#10B981"/>
<path d="M40.9713 188.315L44.7428 191.521L51.1136 183.479" stroke="#073F2C" stroke-width="2" stroke-linecap="round" stroke-linejoin="round"/>
<defs>
<linearGradient id="paint0_linear_1305_315" x1="200.487" y1="346" x2="200.487" y2="173.723" gradientUnits="userSpaceOnUse">
<stop stop-color="#18181B"/>
<stop offset="0.705" stop-color="#18181B" stop-opacity="0"/>
</linearGradient>
<clipPath id="clip0_1305_315">
<rect width="16" height="16" fill="white" transform="translate(301.944 248.715) rotate(-42.3104)"/>
</clipPath>
</defs>
</svg>
